<svg width="300" height="307" viewBox="0 0 300 307" fill="none" xmlns="http://www.w3.org/2000/svg">
<g clip-path="url(#clip0_83_240)">
<rect width="300" height="306.667" rx="150" fill="#1A2B3A"/>
<g clip-path="url(#clip1_83_240)">
<path fill-rule="evenodd" clip-rule="evenodd" d="M159.268 133.986L161.27 135.963L163.091 134.583L163.506 134.251L163.491 131.46L161.713 129.749L160 130.54L159.184 132.162L159.268 133.986Z" fill="#FCF6E6" stroke="#FCF6E6" stroke-width="2" stroke-miterlimit="1.5" stroke-linecap="round" stroke-linejoin="round"/>
<path d="M101.687 181.994L104.458 182.145L106.543 180.705L107.356 180.499L106.699 182.243L106.647 183.29L110.165 183.068L112.3 182.311L115.401 180.296L116.78 180.135L119.546 178.096L120.562 175.998" stroke="#FCF6E6" stroke-width="2" stroke-miterlimit="1.5" stroke-linecap="round" stroke-linejoin="round"/>
<path fill-rule="evenodd" clip-rule="evenodd" d="M90.9903 176.63L92.5626 182.276L92.8335 183.235L90.7618 181.924L89.29 179.56L90.9903 176.63Z" stroke="#FCF6E6" stroke-width="2" stroke-miterlimit="1.5" stroke-linecap="round" stroke-linejoin="round"/>
<path fill-rule="evenodd" clip-rule="evenodd" d="M183.899 146.398L187.563 145.125L192.548 144.606L197.379 145.089L201.819 145.989L205.2 147.66L206.579 149.141L206.868 150.335L203.563 150.021L200.532 149.982L196.868 150.368L192.259 151.425L189.392 152.415L187.378 150.731L185.75 148.356L183.899 146.398Z" stroke="#FCF6E6" stroke-width="2" stroke-miterlimit="1.5" stroke-linecap="round" stroke-linejoin="round"/>
<path fill-rule="evenodd" clip-rule="evenodd" d="M192.547 144.606L197.722 144.431L201.902 144.791L204.723 145.317L208.318 146.656L211.627 148.508L214.105 150.497L216.459 153.177L218.024 155.174L219.888 157.547L214.636 154.002L210.514 151.548L206.9 150.225L206.531 148.917L205.275 147.666L202.013 145.979L197.447 145.046L192.547 144.606Z" stroke="#FCF6E6" stroke-width="2" stroke-miterlimit="1.5" stroke-linecap="round" stroke-linejoin="round"/>
<path fill-rule="evenodd" clip-rule="evenodd" d="M206.869 150.334L209.238 150.924L211.886 152.177L213.687 153.332L216.116 154.986L218.706 156.813L221.074 158.545L223.44 160.96L224.649 162.364L225.815 163.662L227.279 165.158L228.864 167.289L230.189 169.355L231.228 170.925L232.77 173.781L233.837 176.287L234.857 178.408L235.584 180.108L236.301 183.436L234.792 181.663L233.917 179.849L233.485 178.217L232.715 176.585L231.771 175.064L230.622 173.654L228.379 171.737L226.309 169.655L224.711 168.063L223.274 165.947L222.657 164.146L219.888 163.649L217.049 162.635L214.009 160.982L211.824 159.72L209.781 158.407L207.873 157.515L208.325 154.954L208.115 153.046L207.182 151.368L206.869 150.334Z" stroke="#FCF6E6" stroke-width="2" stroke-miterlimit="1.5" stroke-linecap="round" stroke-linejoin="round"/>
<path fill-rule="evenodd" clip-rule="evenodd" d="M189.393 152.414L188.322 154.296L187.55 155.711L186.561 157.639L186.422 159.11L188.544 158.865L191.822 158.027L193.687 157.374L196.375 157.27L198.52 157.098L200.515 157.072L202.824 157.032L204.891 157.223L206.411 157.497L207.914 157.575L208.17 156.218L208.398 154.487L208.105 152.878L207.268 151.503L206.881 150.35L203.642 150.015L201.091 149.999L198.991 150.16L196.783 150.371L194.278 150.943L192.449 151.408L189.393 152.414Z" stroke="#FCF6E6" stroke-width="2" stroke-miterlimit="1.5" stroke-linecap="round" stroke-linejoin="round"/>
<path fill-rule="evenodd" clip-rule="evenodd" d="M207.915 157.575L209.428 158.426L211.281 159.596L213.4 161.502L215.208 163.442L216.35 164.656L217.211 166.121L218.042 167.616L218.853 169.478L219.426 171.135L219.273 172.544L217.949 172.618L216.397 172.367L214.882 171.652L213.947 170.741L212.992 169.537L212.419 168.63L211.783 167.316L211.058 166.278L210.092 165.095L209.272 164.228L208.347 163.525L208.831 161.749L208.944 160.103L208.804 159.072L207.915 157.575Z" stroke="#FCF6E6" stroke-width="2" stroke-miterlimit="1.5" stroke-linecap="round" stroke-linejoin="round"/>
<path fill-rule="evenodd" clip-rule="evenodd" d="M219.273 172.545L220.645 173.263L221.517 175.006L222.37 176.995L223.219 178.89L223.688 180.475L224.163 182.079L224.749 184.321L224.959 185.929L225.149 187.783L225.5 189.601L225.789 190.936L226.178 193.046L226.237 195.317L226.277 197.61L225.925 199.065L225.149 201.41L224.644 198.39L224.273 195.776L223.97 194.011L223.537 191.375L222.669 189.043L221.069 186.763L219.878 184.662L219.07 182.546L218.194 180.159L217.587 177.759L216.525 175.167L215.137 171.715L217.105 172.442L218.782 172.538L219.273 172.545Z" stroke="#FCF6E6" stroke-width="2" stroke-miterlimit="1.5" stroke-linecap="round" stroke-linejoin="round"/>
<path fill-rule="evenodd" clip-rule="evenodd" d="M63.4047 123.23L66.5402 119.316L69.1072 115.321L74.2205 110.008L78.7388 105.89L83.5131 102.661L85.5117 101.564L86.3352 97.9779L89.5189 94.5907L91.8782 90.8899L95.6178 88.0482L96.4106 85.8753L98.7433 83.7942L101.598 81.2939L105.327 79.9225L109.716 74.2285L113.517 70.7342L118.737 69.0183L125.25 64.1922L131.219 61.1155L139.671 58.2617L147.113 56.5211L154.21 56.1846L160.373 58.0306L161.304 59.6279L157.514 58.3978L157.733 60.0369L153.93 59.031L154.983 60.5472L150.748 59.9423L151.756 61.3177L148.065 61.3831L149.374 62.7609L147.336 62.5217L148.007 63.7324L144.946 63.4243L146.082 64.2871L143.253 64.9191L144.502 65.8L140.366 66.4362L140.846 67.6724L137.4 68.8708L139.258 69.5284L135.4 70.5168L137.106 71.2277L133.748 72.7517L135.334 73.2641L131.89 74.0952L134.039 74.8597L131.147 75.9761L133.141 76.5839L129.326 78.1728L131.48 78.6056L128.078 80.2661L129.551 80.5921L125.841 82.3722L128.131 82.1603L127.577 84.6254L126.261 85.7814L125.259 86.6578L123.785 87.1815L122.705 87.9039L123.613 88.8537L124.489 89.4986L122.565 89.9154L121.19 90.1765L123.119 90.5906L122.109 91.4181L120.549 92.0697L121.853 92.605L121.779 93.3762L120.248 93.5638L118.643 94.2039L118.134 94.8186L120.362 95.1561L119.745 95.8849L118.488 96.396L117.001 96.9327L119.408 97.325L117.881 98.1255L116.27 99.4725L115.495 99.9041L118.223 100.136L117.24 100.962L115.766 101.391L113.511 102.066L115.985 102.593L116.789 103.046L114.478 103.633L112.964 104.04V105.43L112.187 106.39L111.149 107.205L109.699 108.101L108.284 109.108L107.645 110.641L108.093 112.536L111.278 113.001L114.654 113.362L117.959 114.02L120.385 113.515L123.82 113.404L126.662 111.207L124.704 115.82L128.496 112.088L131.572 109.158L134.949 107.159L136.742 104.48L138.446 100.477L142.096 99.1611L146.564 97.1695L142.953 100.818L147.31 99.0074L149.631 95.7309L150.218 92.6152L150.672 89.2624L152.08 85.2L152.636 87.0976L152.907 88.2653L154.177 85.6066L155.02 84.6818V86.5922L155.865 86.1295L157.006 84.4836L157.193 86.3847L158.131 85.3028L159.527 84.3059L159.168 86.4936L160.591 84.7624L161.733 83.5396L161.632 85.7249L162.956 84.1095L164.137 82.7311L163.841 84.8491L165.356 83.6551L166.863 82.8646L166.866 84.0598L169.25 80.9838L171.373 78.7628L173.605 75.7285L174.879 73.0527L175.547 72.2418L175.479 75.3277L175.06 77.797L174.422 79.4753L173.355 81.6626L172.112 84.0131L170.942 85.4023L168.561 87.8246L167.473 88.6845L167.009 90.3927L166.572 91.6239L165.555 93.2377L164.565 94.4227L162.974 95.0478L161.001 98.0735L160.05 99.1616L158.744 99.9983L157.54 101.172L156.671 102.157L155.831 103.203L155.299 104.319L154.464 105.468L152.357 106.871L150.947 107.377L150.157 108.869L149.321 110.324L148.302 112.233L147.083 113.458L145.109 114.421L143.324 114.692L142.499 116.344L141.51 117.468L139.829 119.443L137.854 120.501L135.627 121.754L134.251 123.201L133.137 124.9L131.696 126.199L129.622 127.107L127.779 128.069L126.089 129.145L124.248 130.479L121.304 132.761L118.813 133.932L116.241 135.236L114.567 137.46L112.694 139.863L110.315 140.536L108.607 140.687L107.492 141.951L106.03 143.339L103.698 143.807L101.753 145.849L100.161 146.371L97.52 147.318L94.8582 149.881L90.5635 152.313L86.0968 153.099L82.3222 153.784L78.748 153.66L75.8294 152.742L72.1621 151.64L69.738 150.693L67.313 149.672L65.7748 146.92L66.1355 145.755L64.7917 144.818L64.9529 143.214L65.3477 141.499L65.1308 139.524L64.3571 136.153L63.6648 134.292L62.9535 133.228L63.6557 130.165L63.0449 128.906L62.1357 127.769L62.5155 125.226L63.4047 123.23Z" stroke="#FCF6E6" stroke-width="2" stroke-miterlimit="1.5" stroke-linecap="round" stroke-linejoin="round"/>
<path fill-rule="evenodd" clip-rule="evenodd" d="M99.8823 149.686L97.9386 149.123L96.545 147.838L92.8801 150.467L90.7352 151.756L87.8906 152.688L84.3139 153.398L79.5089 153.463L75.7327 152.726L70.6127 150.735L67.2695 149.671L67.4615 151.11L69.4792 152.383L72.4086 153.644L74.0225 154.515L74.8227 156.037L76.3776 157.541L78.3313 158.149L80.1779 159.125L81.6812 160.396L83.8984 160.597L85.8837 161.87L88.7466 162.343L91.1715 162.436L93.0314 163.007L96.5956 163.361L99.058 163.281L99.8757 163.19L100.233 158.355L100.336 156.367L100.095 153.35L99.8823 149.686Z" stroke="#FCF6E6" stroke-width="2" stroke-miterlimit="1.5" stroke-linecap="round" stroke-linejoin="round"/>
<path fill-rule="evenodd" clip-rule="evenodd" d="M85.8841 161.87L84.3858 163.029L82.614 164.862L80.8348 166.557L78.9633 168.92L77.8215 170.955L76.9963 172.128L75.7107 174.028L73.5052 176.819L72.4747 178.519L71.1367 180.798L70.6722 182.372L70.5085 183.938L69.5902 185.647L68.8032 187.328L67.757 190.598L67.0963 193.913L67.0215 195.218L69.0367 192.944L69.9716 190.521L71.5996 187.618L73.2243 184.538L74.8622 182.592L76.3165 180.207L78.3027 177.034L80.1692 174.002L82.2035 172.087L84.6027 170.575L86.9678 169.196L87.8503 166.584L89.0703 164.741L90.4074 162.367L85.8841 161.87Z" stroke="#FCF6E6" stroke-width="2" stroke-miterlimit="1.5" stroke-linecap="round" stroke-linejoin="round"/>
<path fill-rule="evenodd" clip-rule="evenodd" d="M87.0451 169.263L86.4085 172.038L86.288 173.701L85.7187 175.159L84.5337 177.647L83.4866 180.258L82.4503 182.828L81.6891 184.989L80.9403 187.291L80.4808 188.748L80.3802 190.568L80.288 192.565L79.5575 194.766L79.1777 196.643L78.8536 199.252L78.6924 202.07L78.9724 204.072L80.0968 201.698L81.4863 198.952L82.191 196.295L83.3303 193.724L84.0658 191.388L85.4104 188.804L86.7151 185.735L87.5279 183.191L88.614 180.717L89.6154 178.738L91.1644 175.569L91.7121 173.834L93.2154 172.637L94.442 171.146L95.6852 169.753L96.7731 167.61L98.3786 165.285L99.8312 163.528L95.3553 163.14L93.0808 162.946L90.4248 162.44L89.0204 164.773L87.8179 166.534L87.0451 169.263Z" stroke="#FCF6E6" stroke-width="2" stroke-miterlimit="1.5" stroke-linecap="round" stroke-linejoin="round"/>
<path fill-rule="evenodd" clip-rule="evenodd" d="M110.922 170.805L108.168 172.025L105.368 173.417L101.464 175.261L99.2747 176.899L98.7803 179.112L99.337 180.918L101.355 182.562L103.909 183.976L107.853 184.653L111.115 183.929L114.557 182.098L117.972 180.904L121.288 179.204L123.089 177.492L124.584 175.677L118.951 174.809L114.008 172.56L110.922 170.805Z" stroke="#FCF6E6" stroke-width="2" stroke-miterlimit="1.5" stroke-linecap="round" stroke-linejoin="round"/>
<path fill-rule="evenodd" clip-rule="evenodd" d="M99.4503 180.515L98.2087 183.409L97.0901 185.605L96.5026 189.392L96.1478 192.133L96.0322 194.22L96.4095 196.866L97.9278 198.019L101.328 196.578L103.558 195.145L104.579 192.83L104.173 189.902L103.381 186.657L102.489 184.191L101.505 182.359L99.4503 180.515Z" stroke="#FCF6E6" stroke-width="2" stroke-miterlimit="1.5" stroke-linecap="round" stroke-linejoin="round"/>
<path d="M101.157 196.441L103.05 195.133L104.265 192.843" stroke="#FCF6E6" stroke-width="2" stroke-miterlimit="1.5" stroke-linecap="round" stroke-linejoin="round"/>
<path fill-rule="evenodd" clip-rule="evenodd" d="M98.3047 197.868L98.6911 201.722L99.2837 204.745L100.74 208.032L102.892 211.159L104.024 213.033L105.764 215.943L107.863 217.217L108.576 219.698L110.517 221.987L112.979 224.46L115.954 226.356L114.084 222.604L111.796 218.285L110.431 215.827L108.963 211.813L108.205 209.308L106.484 207.983L106.582 205.643L105.921 202.288L104.982 197.576L103.122 195.521L98.3047 197.868Z" stroke="#FCF6E6" stroke-width="2" stroke-miterlimit="1.5" stroke-linecap="round" stroke-linejoin="round"/>
<path fill-rule="evenodd" clip-rule="evenodd" d="M191.152 223.078L194.75 221.066L198.016 218.256L200.445 216.091L202.775 213.062L204.576 210.65L206.34 207.707L207.608 204.912L208.804 201.92L209.012 199.154L207.111 197.331L205.517 195.84L204.018 195.045L202.997 198.465L201.889 202.704L201.224 206.277L199.896 210.092L198.076 213.493L195.947 216.599L193.143 219.749L191.152 223.078Z" stroke="#FCF6E6" stroke-width="2" stroke-miterlimit="1.5" stroke-linecap="round" stroke-linejoin="round"/>
<path fill-rule="evenodd" clip-rule="evenodd" d="M209.012 199.153L209.987 196.945L210.345 193.527L210.486 189.673L210.67 186.697L209.951 183.603L207.96 180.469L207.138 180.508L206.421 181.635L205.348 183.499L204.801 185.168L204.624 188.01L204.198 191.858L204.037 195.022L205.728 195.895L209.012 199.153Z" stroke="#FCF6E6" stroke-width="2" stroke-miterlimit="1.5" stroke-linecap="round" stroke-linejoin="round"/>
<path fill-rule="evenodd" clip-rule="evenodd" d="M207.96 180.47L205.623 177.234L203.198 175.188L200.214 172.956L195.533 171.003L192.58 168.724L188.552 166.872L183.8 167.938L177.577 169.685L169.295 170.564L168.366 167.854L166.479 164.905L164.399 161.377L161.6 159.92L157.536 159.67L155.294 158.954L153.544 157.997L151.064 159.162L149.277 159.471L146.589 159.559L144.321 160.513L142.238 162.51L140.304 164.817L139.089 167.265L138.753 169.002L140.806 171.64L140.486 173.055L139.585 174.608L143.463 175.129L145.807 175.193L150.452 175.886H154.21L158.802 175.472L163.04 174.883L167.946 173.802L169.55 173.835L169.919 173.344L170.555 176.344L171.036 175.105L171.922 177.116L172.532 175.733L173.736 177.51L174.189 176.334L175.71 178.636L175.95 177.151L177.772 178.707L178.049 177.311L179.741 178.687L180.134 177.29L181.631 178.379L181.806 176.954L183.234 177.857L183.336 176.688L184.464 177.497L184.587 176.362L185.58 176.888L185.973 175.716L186.91 175.931L192.933 181.97L197.37 183.337L203.674 184.135L205.218 183.92L207.96 180.47Z" stroke="#FCF6E6" stroke-width="2" stroke-miterlimit="1.5" stroke-linecap="round" stroke-linejoin="round"/>
<path d="M116.873 151.864L118.393 148.643L120.919 146.106L124.223 143.912L128.606 142.267L132.635 140.729L137.198 140.126L141.529 139.691L145.179 139.456L148.972 139.603L155.16 139.13L159.035 139.299L163.16 139.899L168.948 140.381L173.268 140.873L176.285 141.917L179.717 143.369L182.67 144.978L184.487 146.602L187.558 150.851L189.595 152.317L186.859 157.146L185.86 160.259L182.644 163.465L178.947 167.224L176.59 169.873L169.471 170.353L167.461 166.22L164.53 162.273L161.967 159.911L158.527 159.715L153.769 158.228L151.09 159.371L146.448 159.694L142.735 161.879L140.138 165.566L138.811 168.6L136.194 168.129L132.953 168.746" stroke="#FCF6E6" stroke-width="2" stroke-miterlimit="1.5" stroke-linecap="round" stroke-linejoin="round"/>
<path fill-rule="evenodd" clip-rule="evenodd" d="M120.314 145.926L112.275 145.925L107.893 146.924L104.391 149.222L111.208 150.543L116.27 148.833L118.654 148.211L120.314 145.926Z" stroke="#FCF6E6" stroke-width="2" stroke-miterlimit="1.5" stroke-linecap="round" stroke-linejoin="round"/>
<path fill-rule="evenodd" clip-rule="evenodd" d="M118.495 148.252L112.533 150L114.272 153.618L117.153 152.444L118.495 148.252Z" stroke="#FCF6E6" stroke-width="2" stroke-miterlimit="1.5" stroke-linecap="round" stroke-linejoin="round"/>
<path fill-rule="evenodd" clip-rule="evenodd" d="M129.947 175.794L134.737 175.626L139.778 174.452L140.938 171.39L138.923 168.566L136.121 167.87L132.884 168.195L133.638 170.676L134.171 173.383L129.947 175.794Z" stroke="#FCF6E6" stroke-width="2" stroke-miterlimit="1.5" stroke-linecap="round" stroke-linejoin="round"/>
<path fill-rule="evenodd" clip-rule="evenodd" d="M142.805 164.896L144.861 165.85L146.239 166.108L148.281 166.393L150.778 167.078L150.969 168.058L149.865 168.371L150.847 168.991L151.747 169.982L152.725 171.199L153.217 171.429L153.387 169.463L153.415 166.515L153.4 164.588L151.611 163.781L149.37 163.259L148.03 163.323L146.696 164.037L142.805 164.896Z" stroke="#FCF6E6" stroke-width="2" stroke-miterlimit="1.5" stroke-linecap="round" stroke-linejoin="round"/>
<path fill-rule="evenodd" clip-rule="evenodd" d="M153.216 171.428L154.476 170.971L155.288 169.423L156.745 168.722L155.731 168.029L155.839 167.095L158.111 166.392L160.356 166.483L162.485 166.111L164.103 164.84L161.967 164.775L159.879 164.343L157.975 163.733L155.946 163.681L154.845 164.371L153.494 164.576L153.216 171.428Z" stroke="#FCF6E6" stroke-width="2" stroke-miterlimit="1.5" stroke-linecap="round" stroke-linejoin="round"/>
<path fill-rule="evenodd" clip-rule="evenodd" d="M148.271 163.066L148.902 161.739L151.442 161.448L153.424 161.292L155.761 161.53L157.758 161.573L158.78 163.056L160.181 164.072L160.835 164.54L158.247 163.796L155.953 163.621L154.835 164.378L153.434 164.525L151.811 163.811L149.902 163.399L147.729 163.346L148.271 163.066Z" stroke="#FCF6E6" stroke-width="2" stroke-miterlimit="1.5" stroke-linecap="round" stroke-linejoin="round"/>
<path fill-rule="evenodd" clip-rule="evenodd" d="M147.575 166.298L148.13 167.385L148.201 168.392L147.885 169.665L146.883 170.445L145.369 171.238L143.381 171.803L141.348 172.072L140.78 171.714L139.794 174.545L143.504 175.095L145.922 175.203L148.377 175.524L150.616 175.905L154.224 175.825L158.248 175.455L161.518 175.237L164.649 174.668L168.624 173.718L169.428 173.498L167.6 172.093L165.105 171.473H163.19L161.612 171.215L160.274 170.632L159.04 169.647L158.665 168.61L158.647 167.456L159.673 166.507L157.917 166.398L156.646 166.8L155.947 167.185L155.748 167.813L156.854 168.693L155.407 169.339L154.567 170.748L153.258 171.311L152.482 171.015L151.689 169.85L150.837 168.978L149.843 168.238L150.949 168.046L150.732 167.003L147.575 166.298Z" stroke="#FCF6E6" stroke-width="2" stroke-miterlimit="1.5" stroke-linecap="round" stroke-linejoin="round"/>
<path d="M144.464 172.58L150.414 172.835L155.499 172.736L161.361 172.031" stroke="#FCF6E6" stroke-width="2" stroke-miterlimit="1.5" stroke-linecap="round" stroke-linejoin="round"/>
<path d="M143.064 173.567L147.594 173.826L151.347 173.994L155.492 173.855L159.538 173.443L163.025 172.891" stroke="#FCF6E6" stroke-width="2" stroke-miterlimit="1.5" stroke-linecap="round" stroke-linejoin="round"/>
<path d="M188.912 166.95L192.953 168.167L195.24 168.872L199.379 168.346L203.53 167.202L206.178 165.502L208.489 163.564" stroke="#FCF6E6" stroke-width="2" stroke-miterlimit="1.5" stroke-linecap="round" stroke-linejoin="round"/>
<path fill-rule="evenodd" clip-rule="evenodd" d="M183.777 160.573L180.858 160.236L178.202 160.439L175.068 160.945L171.882 161.354L167.25 161L164.888 160.2L161.427 158.61L159.268 156.839L158.581 155.253L157.954 153.7L157.49 152.541L158.945 151.808L159.832 152.856L160.695 154.052L161.203 155.597L162.745 157.292L165.24 158.633L168.501 159.493L171.451 159.627L174.616 159.386L178.016 158.571L181.433 158.019L184.445 159.132L183.777 160.573Z" stroke="#FCF6E6" stroke-width="2" stroke-miterlimit="1.5" stroke-linecap="round" stroke-linejoin="round"/>
<path fill-rule="evenodd" clip-rule="evenodd" d="M123.025 158.855L125.025 157.876L126.545 157.994L129.124 158.409L131.403 159.141L134.206 159.49L136.18 159.604L139.043 159.269L141.398 158.806L143.653 157.819L145.889 156.223L146.96 153.381L148.337 152.209L149.542 152.436L149.784 153.862L149.087 155.271L147.827 157.059L145.664 158.501L143.892 159.639L141.814 160.553L138.601 161.436L136.143 161.498L133.105 161.056L129.681 160.556L127.087 160.227L124.246 160.166L123.064 160.7L123.025 158.855Z" stroke="#FCF6E6" stroke-width="2" stroke-miterlimit="1.5" stroke-linecap="round" stroke-linejoin="round"/>
<path fill-rule="evenodd" clip-rule="evenodd" d="M99.7334 149.806L100.155 156.126L99.9129 159.45L99.6885 163.534L102.492 164.904L105.804 167.188L108.698 169.605L113.341 172.156L117.744 174.416L121.788 175.678L129.388 175.996L132.45 174.931L133.86 173.358L133.389 171.004L132.45 169.138L131.474 168.009L130.247 166.904L129.756 167.738V165.725V164.056L129.068 164.473L128.356 166.143L128.577 164.056V163.074L127.595 163.712L127.251 164.915L127.03 163.351V161.88L126.069 162.165V163.83L125.115 160.499L124.343 161.01L124.613 163.351L124.03 160.334L122.636 160.896L122.799 157.803L122.157 158.129L121.471 159.96V158.274L121.667 156.364L120.971 156.984L120.326 158.794L120.444 155.806L119.681 156.364L119.265 157.803L119.107 154.896L118.246 155.341L117.959 156.631L117.85 152.885L117.268 153.676L117.039 154.896L116.392 152.164L115.832 152.993V154.196L114.586 150.984L113.398 152.656L112.357 150.305L111.692 150.451L111.941 152.164L110.797 148.89L110.044 150.529L110.797 151.866L109.29 149.192L108.041 149.935L109.028 151.595L107.557 149.122L106.093 149.681L107.343 151.595L105.717 149.105L105.595 151.304L104.388 150.118L103.785 148.682L103.161 149.681L103.307 150.659L102.349 149.681L101.829 148.199L101.325 149.747L101.501 151.37L100.643 149.681L100.054 148.199L99.7334 149.806Z" stroke="#FCF6E6" stroke-width="2" stroke-miterlimit="1.5" stroke-linecap="round" stroke-linejoin="round"/>
<path d="M148.651 151.234L149.945 152.033L150.537 153.974L150.86 156.432L152.101 157.602L154.533 157.875L156.34 157.171L156.729 155.567L156.874 153.211L157.66 151.501H158.773" stroke="#FCF6E6" stroke-width="2" stroke-miterlimit="1.5" stroke-linecap="round" stroke-linejoin="round"/>
<path d="M160.364 153.349L162.26 152.359L164.223 153.155L167.322 154.237L170.764 155.015L174.2 155.089L177.437 154.087L181.304 153.706L183.399 153.347L185.676 153.524L187.824 154.519" stroke="#FCF6E6" stroke-width="2" stroke-miterlimit="1.5" stroke-linecap="round" stroke-linejoin="round"/>
<path d="M161.62 152.439L161.573 150.805L162.646 150.008L164.988 151.562L168.249 152.268L172.44 152.341L177.153 152.78L180.466 152.459L184.908 151.032L188.877 152.342" stroke="#FCF6E6" stroke-width="2" stroke-miterlimit="1.5" stroke-linecap="round" stroke-linejoin="round"/>
<path fill-rule="evenodd" clip-rule="evenodd" d="M159.126 151.629L158.977 147.641L158.979 144.691L159.325 141.027L159.58 137.657L159.337 134.97L159.275 132.065L159.78 130.391L161.187 129.483L162.832 130.196L163.964 132.567L163.843 135.297L163.442 135.921L162.045 137.12L162.341 139.103L161.043 140.012L161.483 141.158L160.87 141.939L161.526 142.457L160.965 143.654L161.809 144.62L161.67 145.458L160.745 146.308L161.849 146.738L161.746 147.689L160.763 148.723L162.142 148.886L162.073 149.502L161.756 152.43L160.302 153.263L159.126 151.629Z" stroke="#FCF6E6" stroke-width="2" stroke-miterlimit="1.5" stroke-linecap="round" stroke-linejoin="round"/>
<path fill-rule="evenodd" clip-rule="evenodd" d="M145.26 137.01L143.926 136.185L143.373 134.414L143.367 132.575L143.898 131.153L145.18 129.859L147.123 129.757L148.202 131.54L148.275 134.715L148.036 137.102L148.112 139.57L148.445 141.91V144.551L148.544 147.346L148.486 150.33L148.47 152.2L146.886 153.596L146.181 152.325L145.883 150.595L145.44 149.464L145.643 148.489L146.518 148.695L145.554 147.444L145.908 146.357L146.71 146.629L145.78 145.097L145.903 143.358L146.72 143.959L145.961 142.414L145.913 141.454L146.685 141.598L145.619 140.457L145.086 139.197L145.26 137.01Z" stroke="#FCF6E6" stroke-width="2" stroke-miterlimit="1.5" stroke-linecap="round" stroke-linejoin="round"/>
<path d="M148.494 149.893L150.111 150.358L150.913 151.039L151.986 151.81L152.392 152.697" stroke="#FCF6E6" stroke-width="2" stroke-miterlimit="1.5" stroke-linecap="round" stroke-linejoin="round"/>
<path d="M145.046 149.894L143.455 150.779L141.309 151.793L138.008 152.16L134.989 152.531L131.68 152.623L127.991 152.53L124.663 151.33L121.567 150.823L118.785 151.75L117.059 152.806" stroke="#FCF6E6" stroke-width="2" stroke-miterlimit="1.5" stroke-linecap="round" stroke-linejoin="round"/>
<path d="M145.262 152.031L142.518 153.334L139.694 154.555L136.595 155.186L133.178 155.272L130.484 154.768L126.785 153.795L123.892 153.735L120.816 154.001L118.472 154.924" stroke="#FCF6E6" stroke-width="2" stroke-miterlimit="1.5" stroke-linecap="round" stroke-linejoin="round"/>
<path d="M159.98 134.639L161.057 136.251L163.467 134.114" stroke="#FCF6E6" stroke-width="2" stroke-miterlimit="1.5" stroke-linecap="round" stroke-linejoin="round"/>
<path d="M159.684 138.177L162.07 137.094" stroke="#FCF6E6" stroke-width="2" stroke-miterlimit="1.5" stroke-linecap="round" stroke-linejoin="round"/>
<path d="M85.5253 175.448L84.4275 173.042L84.3262 171.016" stroke="#FCF6E6" stroke-width="2" stroke-miterlimit="1.5" stroke-linecap="round" stroke-linejoin="round"/>
<path fill-rule="evenodd" clip-rule="evenodd" d="M84.6387 170.765L85.7905 173.2L86.4038 170.735L85.6159 171.419L85.3342 170.916L85.5578 170.38L84.6387 170.765Z" stroke="#FCF6E6" stroke-width="2" stroke-miterlimit="1.5" stroke-linecap="round" stroke-linejoin="round"/>
<path fill-rule="evenodd" clip-rule="evenodd" d="M79.3818 201.732L80.6425 199.197L81.4619 197.32L82.2871 195.209L83.7082 191.993L82.5156 192.398L81.3597 192.377L80.35 195.287L79.7866 198.172L79.3818 201.732Z" stroke="#FCF6E6" stroke-width="2" stroke-miterlimit="1.5" stroke-linecap="round" stroke-linejoin="round"/>
<path d="M86.3139 174.502L86.0579 175.774L85.1496 177.853L84.3967 179.545L83.6529 181.776L82.7712 184.615L81.8105 187.738L81.8679 190.558L83.2457 186.976L84.1623 184.495L85.3216 182.115L87.2704 178.233" stroke="#FCF6E6" stroke-width="2" stroke-miterlimit="1.5" stroke-linecap="round" stroke-linejoin="round"/>
<path d="M82.8613 190.955L83.4514 190.873L84.2358 189.812L84.7602 188.664L85.8289 186.583L86.4497 184.439L87.4943 182.083L89.2137 178.84" stroke="#FCF6E6" stroke-width="2" stroke-miterlimit="1.5" stroke-linecap="round" stroke-linejoin="round"/>
<path d="M82.8301 190.805L82.8674 189.844L83.4508 188.14L83.9137 186.49L84.458 185.255L85.4237 182.87L87.3226 178.336" stroke="#FCF6E6" stroke-width="2" stroke-miterlimit="1.5" stroke-linecap="round" stroke-linejoin="round"/>
<path d="M91.7659 173.687L89.7698 173.59L87.4761 173.746L86.375 173.757" stroke="#FCF6E6" stroke-width="2" stroke-miterlimit="1.5" stroke-linecap="round" stroke-linejoin="round"/>
<path d="M77.9531 171.384L79.7108 172.059L81.8182 172.207" stroke="#FCF6E6" stroke-width="2" stroke-miterlimit="1.5" stroke-linecap="round" stroke-linejoin="round"/>
<path d="M70.751 183.52L72.0224 184.79L73.6521 183.896" stroke="#FCF6E6" stroke-width="2" stroke-miterlimit="1.5" stroke-linecap="round" stroke-linejoin="round"/>
<path d="M74.1781 176.788L73.2457 178.793L72.3407 180.423L71.715 181.85L71.5986 183.573L72.5543 182.159L73.7335 180.585L74.9901 178.682L76.6837 176.417" stroke="#FCF6E6" stroke-width="2" stroke-miterlimit="1.5" stroke-linecap="round" stroke-linejoin="round"/>
<path d="M76.8143 176.82L75.9259 178.13L75.2121 179.127L74.3545 180.277L73.1328 182.071L72.252 183.693L73.4852 183.136L75.1024 181.409L76.3863 179.671" stroke="#FCF6E6" stroke-width="2" stroke-miterlimit="1.5" stroke-linecap="round" stroke-linejoin="round"/>
<path d="M71.6344 185.072L70.1045 187.791" stroke="#FCF6E6" stroke-width="2" stroke-miterlimit="1.5" stroke-linecap="round" stroke-linejoin="round"/>
<path d="M159.734 134.536L159.812 137.699L161.042 136.986L162.64 136.189L163.151 135.436L163.442 134.098" stroke="white" stroke-opacity="0.1" stroke-width="2" stroke-miterlimit="1.5" stroke-linecap="round" stroke-linejoin="round"/>
<path d="M160.224 140.539L161.041 140.003" stroke="#FCF6E6" stroke-width="2" stroke-miterlimit="1.5" stroke-linecap="round" stroke-linejoin="round"/>
<path d="M160.297 142.567L160.953 141.905" stroke="#FCF6E6" stroke-width="2" stroke-miterlimit="1.5" stroke-linecap="round" stroke-linejoin="round"/>
<path d="M160.429 144.526L161.053 143.627" stroke="#FCF6E6" stroke-width="2" stroke-miterlimit="1.5" stroke-linecap="round" stroke-linejoin="round"/>
<path d="M160.086 147.015L160.813 146.262" stroke="#FCF6E6" stroke-width="2" stroke-miterlimit="1.5" stroke-linecap="round" stroke-linejoin="round"/>
<path d="M160.242 149.384L160.842 148.684" stroke="#FCF6E6" stroke-width="2" stroke-miterlimit="1.5" stroke-linecap="round" stroke-linejoin="round"/>
<path d="M146.485 148.677L146.971 149.417" stroke="#FCF6E6" stroke-width="2" stroke-miterlimit="1.5" stroke-linecap="round" stroke-linejoin="round"/>
<path d="M146.727 146.591L147.157 147.053" stroke="#FCF6E6" stroke-width="2" stroke-miterlimit="1.5" stroke-linecap="round" stroke-linejoin="round"/>
<path d="M146.727 143.91L146.967 144.367" stroke="#FCF6E6" stroke-width="2" stroke-miterlimit="1.5" stroke-linecap="round" stroke-linejoin="round"/>
<path d="M146.609 141.579L146.928 142.261" stroke="#FCF6E6" stroke-width="2" stroke-miterlimit="1.5" stroke-linecap="round" stroke-linejoin="round"/>
<path d="M147.007 140.169L145.176 139.444" stroke="#FCF6E6" stroke-width="2" stroke-miterlimit="1.5" stroke-linecap="round" stroke-linejoin="round"/>
<path d="M184.417 158.986L185.506 157.844L187.371 154.559" stroke="#FCF6E6" stroke-width="2" stroke-miterlimit="1.5" stroke-linecap="round" stroke-linejoin="round"/>
<path d="M183.739 160.63L181.985 162.835L180.291 164.92L178.762 166.613L176.735 168.194L175.09 169.29L173.647 169.741L171.562 169.76L169.271 169.574" stroke="#FCF6E6" stroke-width="2" stroke-miterlimit="1.5" stroke-linecap="round" stroke-linejoin="round"/>
<path d="M184.311 159.307L183.089 160.037L182.64 158.527L181.306 159.848L180.232 158.371L179.286 159.843L178.021 158.848L177.073 160.135L175.986 159.246L175.096 160.488L173.859 159.676L172.912 160.905L171.883 159.86L170.905 161.01L169.515 159.713L168.378 160.893L167.474 159.614L165.827 160.326L165.317 159.07L163.835 159.668L163.369 158.122L161.964 158.632L162.001 157.05L160.21 157.076L160.754 155.537L159.018 155.34L159.343 153.818L157.964 153.693L158.58 152.76" stroke="#FCF6E6" stroke-width="2" stroke-miterlimit="1.5" stroke-linecap="round" stroke-linejoin="round"/>
<path d="M149.207 152.82L148.166 153.035L148.777 154.688L147.096 154.344L147.712 156.778L146.058 156.049L146.036 157.946L144.531 157.625L144.227 159.197L142.878 158.71L142.17 160.246L141.104 159.228L140.149 160.741L139.089 159.579L138.193 161.104L136.854 159.921L135.991 161.126L135.102 159.99L134.111 160.95L133.321 159.671L132.173 160.588L131.24 159.278L130.404 160.191L128.915 158.893L127.99 160.016L126.838 158.347L125.802 159.813L124.573 158.23" stroke="#FCF6E6" stroke-width="2" stroke-miterlimit="1.5" stroke-linecap="round" stroke-linejoin="round"/>
<path d="M186.883 176.688L185.881 177.39L186.692 178.169L185.321 178.675L186.288 179.776L184.784 180.156L185.747 181.053L183.96 181.386L184.884 182.848L183.438 183.344L184.16 184.208L182.52 184.626L183.258 185.747L182.71 186.269L181.769 186.052L180.017 187.587L177.607 190.396L175.569 193.731L174.272 197.168L174.123 198.956L175.669 197.51L175.837 196.277L176.334 195.909L176.408 194.923L176.893 196.424" stroke="#FCF6E6" stroke-width="2" stroke-miterlimit="1.5" stroke-linecap="round" stroke-linejoin="round"/>
<path d="M177.024 195.904L177.556 195.639L177.742 194.774L178.24 194.685L178.27 193.823L178.844 194.002L179.176 192.881L179.576 193.821L180.031 193.286L180.199 192.703L180.796 192.674L181.066 192.106L181.439 192.448L182.961 191.281L182.835 192.65L183.123 192.708L181.788 193.633L182.457 193.801L180.962 194.335L181.21 194.915L182.489 194.762L180.976 195.369L181.416 195.759L180.622 196.168L180.016 196.554L180.695 197.173L179.647 197.602L178.932 198.592L178.269 199.818L176.897 200.98L179.791 200.197L182.253 198.872L184.391 197.756L186.144 195.757L187.289 193.625L187.735 191.352L188.592 189.745L189.938 188.164L191.661 186.94L192.198 185.554L192.596 183.825L192.372 182.176L192.566 181.458" stroke="#FCF6E6" stroke-width="2" stroke-miterlimit="1.5" stroke-linecap="round" stroke-linejoin="round"/>
<path d="M182.982 191.271L183.343 189.568L183.267 187.207L182.708 186.268" stroke="#FCF6E6" stroke-width="2" stroke-miterlimit="1.5" stroke-linecap="round" stroke-linejoin="round"/>
<path d="M183.205 192.671L183.893 191.816L184.228 191.811" stroke="#FCF6E6" stroke-width="2" stroke-miterlimit="1.5" stroke-linecap="round" stroke-linejoin="round"/>
<path d="M182.391 193.791L183.339 193.497L184.235 193.07" stroke="#FCF6E6" stroke-width="2" stroke-miterlimit="1.5" stroke-linecap="round" stroke-linejoin="round"/>
<path d="M182.458 194.735L183.038 194.424L183.747 194.252" stroke="#FCF6E6" stroke-width="2" stroke-miterlimit="1.5" stroke-linecap="round" stroke-linejoin="round"/>
<path d="M182.896 190.875L182.087 191.192L181.828 190.425" stroke="#FCF6E6" stroke-width="2" stroke-miterlimit="1.5" stroke-linecap="round" stroke-linejoin="round"/>
<path d="M181.288 191.21L180.513 191.568L180.228 190.431" stroke="#FCF6E6" stroke-width="2" stroke-miterlimit="1.5" stroke-linecap="round" stroke-linejoin="round"/>
<path d="M177.681 192.368L177.831 192.959L178.217 193.086L178.364 192.342L178.76 192.073L178.983 192.604L179.238 192.416L179.506 191.316L179.88 191.971L180.217 191.912" stroke="#FCF6E6" stroke-width="2" stroke-miterlimit="1.5" stroke-linecap="round" stroke-linejoin="round"/>
<path d="M177.552 192.472L177.463 193.605L177.29 194.231L176.99 194.487L176.605 194.936" stroke="#FCF6E6" stroke-width="2" stroke-miterlimit="1.5" stroke-linecap="round" stroke-linejoin="round"/>
<path d="M194.105 170.312L194.742 172.838L195.09 176.277L194.093 178.875L192.672 181.668" stroke="#FCF6E6" stroke-width="2" stroke-miterlimit="1.5" stroke-linecap="round" stroke-linejoin="round"/>
<path d="M189.839 168.553L188.516 169.873L186.885 173.185L186.631 175.734" stroke="#FCF6E6" stroke-width="2" stroke-miterlimit="1.5" stroke-linecap="round" stroke-linejoin="round"/>
<path d="M212.743 169.349L212.321 171.09L211.624 173.254L211.407 175.598L213.228 173.82L214.475 171.32" stroke="#FCF6E6" stroke-width="2" stroke-miterlimit="1.5" stroke-linecap="round" stroke-linejoin="round"/>
<path d="M212.281 169.248L211.175 172.217L210.6 174.426L210.475 178.118L212.118 176.377L213.974 174.1L214.72 172.141" stroke="#FCF6E6" stroke-width="2" stroke-miterlimit="1.5" stroke-linecap="round" stroke-linejoin="round"/>
<path d="M80.9824 192.013L83.8245 191.438" stroke="#FCF6E6" stroke-width="2" stroke-miterlimit="1.5" stroke-linecap="round" stroke-linejoin="round"/>
<path d="M203.228 205.616L205.167 200.785" stroke="#FCF6E6" stroke-width="2" stroke-miterlimit="1.5" stroke-linecap="round" stroke-linejoin="round"/>
<path d="M207.182 191.119L207.009 193.168L206.688 194.65L206.404 195.791L206.003 197.139L205.682 198.443L205.192 200.112L205.157 200.686" stroke="#FCF6E6" stroke-width="2" stroke-miterlimit="1.5" stroke-linecap="round" stroke-linejoin="round"/>
<path d="M205.601 195.326L204.496 193.049" stroke="#FCF6E6" stroke-width="2" stroke-miterlimit="1.5" stroke-linecap="round" stroke-linejoin="round"/>
<path d="M208.014 197.845L209.309 197.059L209.839 195.989" stroke="#FCF6E6" stroke-width="2" stroke-miterlimit="1.5" stroke-linecap="round" stroke-linejoin="round"/>
<path d="M222.818 188.677L224.691 188.029" stroke="#FCF6E6" stroke-width="2" stroke-miterlimit="1.5" stroke-linecap="round" stroke-linejoin="round"/>
<path d="M224.125 188.715L222.951 186.364L222.385 184.633L221.697 183.015L221.006 181.066L220.315 179.422L219.909 178.247L219.244 176.75" stroke="#FCF6E6" stroke-width="2" stroke-miterlimit="1.5" stroke-linecap="round" stroke-linejoin="round"/>
<path d="M217.497 165.725L217.937 163.118" stroke="#FCF6E6" stroke-width="2" stroke-miterlimit="1.5" stroke-linecap="round" stroke-linejoin="round"/>
<path d="M215.133 162.747L215.204 161.745" stroke="#FCF6E6" stroke-width="2" stroke-miterlimit="1.5" stroke-linecap="round" stroke-linejoin="round"/>
<path fill-rule="evenodd" clip-rule="evenodd" d="M199.348 172.227L196.873 169.208L192.862 168.479L195.672 170.746L199.348 172.227Z" fill="#FCF6E6" stroke="#FCF6E6" stroke-width="2" stroke-miterlimit="1.5" stroke-linecap="round" stroke-linejoin="round"/>
<path fill-rule="evenodd" clip-rule="evenodd" d="M175.316 169.55L176.59 169.506L178.398 167.357L175.316 169.55Z" fill="#FCF6E6" stroke="#FCF6E6" stroke-width="2" stroke-miterlimit="1.5" stroke-linecap="round" stroke-linejoin="round"/>
<path fill-rule="evenodd" clip-rule="evenodd" d="M180.909 164.763L185.65 160.145L186.541 157.286L187.947 154.752L187.37 154.968L186.169 157.223L184.827 158.954L180.909 164.763Z" fill="#FCF6E6" stroke="#FCF6E6" stroke-width="2" stroke-miterlimit="1.5" stroke-linecap="round" stroke-linejoin="round"/>
<path fill-rule="evenodd" clip-rule="evenodd" d="M185.959 160.457L191.918 158.387L192.593 157.87L189.954 157.867L187.78 158.314L186.871 157.705L185.959 160.457Z" fill="#FCF6E6"/>
<path fill-rule="evenodd" clip-rule="evenodd" d="M187.114 157.442C187.114 157.442 188.063 155.175 190.308 153.615C192.553 152.054 194.907 151.191 194.907 151.191L196.236 150.663L189.935 152.358L187.114 157.442Z" fill="#FCF6E6"/>
<path fill-rule="evenodd" clip-rule="evenodd" d="M143.781 133.849L146.315 136.41L147.567 134.846L147.976 134.489L147.961 131.49L147.024 129.904L144.821 130.316L143.719 132.244L143.781 133.849Z" fill="#FCF6E6" stroke="#FCF6E6" stroke-width="2" stroke-miterlimit="1.5" stroke-linecap="round" stroke-linejoin="round"/>
<circle cx="145.743" cy="132.132" r="0.72455" fill="#1A2B3A"/>
<circle cx="161.473" cy="132.299" r="0.72455" fill="#1A2B3A"/>
<path d="M146.154 135.238C146.216 135.175 145.981 134.839 145.628 134.487C145.275 134.135 144.938 133.901 144.875 133.964C144.813 134.027 145.048 134.363 145.401 134.715C145.754 135.067 146.091 135.301 146.154 135.238Z" fill="#FCF6E6"/>
<path d="M161.469 134.972C161.55 134.891 161.329 134.54 160.976 134.188C160.623 133.836 160.272 133.616 160.191 133.698C160.11 133.779 160.33 134.13 160.683 134.482C161.036 134.834 161.388 135.053 161.469 134.972Z" fill="#FCF6E6"/>
<path d="M146.049 135.235C146.112 135.294 146.391 135.098 146.671 134.798C146.952 134.497 147.129 134.206 147.066 134.147C147.003 134.089 146.725 134.285 146.444 134.585C146.163 134.886 145.987 135.177 146.049 135.235Z" fill="#FCF6E6"/>
<path d="M161.337 134.954C161.393 135.018 161.758 134.792 162.152 134.448C162.546 134.104 162.819 133.773 162.762 133.708C162.706 133.643 162.341 133.87 161.947 134.214C161.554 134.558 161.28 134.889 161.337 134.954Z" fill="#FCF6E6"/>
<path fill-rule="evenodd" clip-rule="evenodd" d="M141.834 174.645L144.727 171.625L140.647 172.118L139.82 174.5L141.834 174.645Z" fill="#FCF6E6"/>
<path fill-rule="evenodd" clip-rule="evenodd" d="M166.857 173.701L169.639 173.404L167.297 171.975C165.733 171.41 163.699 170.85 163.024 171.757L166.857 173.701Z" fill="#FCF6E6"/>
<path fill-rule="evenodd" clip-rule="evenodd" d="M155.255 163.237L156.587 161.973L157.86 161.875L159.316 163.606L154.679 164.061L155.255 163.237Z" fill="#FCF6E6"/>
<path fill-rule="evenodd" clip-rule="evenodd" d="M149.079 162.069L149.839 161.761L150.639 162.767L151.192 163.427L148.019 163.26L149.079 162.069Z" fill="#FCF6E6"/>
<path d="M82.0596 110.507L84.1579 109.908L86.6435 110.519L89.6144 110.791L92.5247 109.437L95.1948 110.482L98.5496 111.763L101.688 113.723L105.294 115.022L107.729 114.857L107.352 112.257L105.44 110.485L102.877 108.966L100.673 107.36L97.8216 107.972" stroke="#FCF6E6" stroke-width="2" stroke-miterlimit="1.5" stroke-linecap="round" stroke-linejoin="round"/>
<path fill-rule="evenodd" clip-rule="evenodd" d="M120.716 175.712L124.291 176.048L119.462 180.159L110.338 183.936L105.984 184.232L102.076 182.535L104.278 182.376L106.614 181.134L106.452 183.008L108.704 183.471L112.738 182.327L116.303 180.75L119.888 178.1L120.716 175.712Z" fill="#FCF6E6" stroke="#FCF6E6" stroke-width="2" stroke-miterlimit="1.5" stroke-linecap="round" stroke-linejoin="round"/>
<path d="M145.603 136.936L147.906 138.556" stroke="#FCF6E6" stroke-width="2" stroke-miterlimit="1.5" stroke-linecap="round" stroke-linejoin="round"/>
<path d="M154.812 152.835L155.456 151.5L156.478 150.806L157.757 150.155L158.786 149.755" stroke="#FCF6E6" stroke-width="2" stroke-miterlimit="1.5" stroke-linecap="round" stroke-linejoin="round"/>
<path d="M101.5 200.948L102.038 203.859L102.64 205.875L103.87 208.58L104.965 210.959L106.185 213.214L107.526 215.277L109.365 218.111L110.839 219.716" stroke="#FCF6E6" stroke-width="2" stroke-miterlimit="1.5" stroke-linecap="round" stroke-linejoin="round"/>
<path d="M107.947 112.812L117.782 114.35L122.82 113.937" stroke="#FCF6E6" stroke-width="2" stroke-miterlimit="1.5" stroke-linecap="round" stroke-linejoin="round"/>
</g>
</g>
<defs>
<clipPath id="clip0_83_240">
<rect width="300" height="306.667" rx="150" fill="white"/>
</clipPath>
<clipPath id="clip1_83_240">
<rect width="300" height="246.233" fill="white" transform="translate(50 40)"/>
</clipPath>
</defs>
</svg>
