<svg width="160" height="164" viewBox="0 0 160 164" fill="none" xmlns="http://www.w3.org/2000/svg">
<g clip-path="url(#clip0_83_2)">
<rect width="160" height="163.556" rx="80" fill="#1A2B3A"/>
<g clip-path="url(#clip1_83_2)">
<path fill-rule="evenodd" clip-rule="evenodd" d="M85.2764 71.1259L86.3444 72.1801L87.3155 71.4443L87.5369 71.2674L87.5288 69.7789L86.5806 68.8662L85.6666 69.2881L85.2314 70.153L85.2764 71.1259Z" fill="#FCF6E6" stroke="#FCF6E6" stroke-miterlimit="1.5" stroke-linecap="round" stroke-linejoin="round"/>
<path d="M54.5664 96.73L56.0445 96.8107L57.1565 96.0426L57.59 95.9327L57.2399 96.863L57.2119 97.4214L59.0885 97.3031L60.2271 96.8993L61.8808 95.8245L62.6161 95.7385L64.0915 94.6513L64.6336 93.5322" stroke="#FCF6E6" stroke-miterlimit="1.5" stroke-linecap="round" stroke-linejoin="round"/>
<path fill-rule="evenodd" clip-rule="evenodd" d="M48.8619 93.8691L49.7005 96.8803L49.8449 97.3918L48.74 96.6929L47.9551 95.4319L48.8619 93.8691Z" stroke="#FCF6E6" stroke-miterlimit="1.5" stroke-linecap="round" stroke-linejoin="round"/>
<path fill-rule="evenodd" clip-rule="evenodd" d="M98.4131 77.7456L100.367 77.0666L103.026 76.79L105.602 77.0475L107.97 77.5275L109.774 78.4184L110.509 79.2087L110.663 79.8451L108.9 79.6776L107.284 79.6572L105.33 79.8628L102.871 80.4266L101.343 80.9545L100.268 80.0565L99.4001 78.7898L98.4131 77.7456Z" stroke="#FCF6E6" stroke-miterlimit="1.5" stroke-linecap="round" stroke-linejoin="round"/>
<path fill-rule="evenodd" clip-rule="evenodd" d="M103.025 76.7898L105.786 76.6963L108.015 76.8886L109.519 77.1692L111.437 77.8832L113.202 78.8707L114.523 79.9317L115.778 81.3611L116.613 82.4262L117.608 83.6915L114.806 81.8008L112.608 80.4924L110.68 79.7868L110.483 79.0888L109.814 78.4217L108.074 77.522L105.639 77.0247L103.025 76.7898Z" stroke="#FCF6E6" stroke-miterlimit="1.5" stroke-linecap="round" stroke-linejoin="round"/>
<path fill-rule="evenodd" clip-rule="evenodd" d="M110.664 79.8447L111.928 80.1594L113.34 80.8278L114.3 81.4438L115.596 82.3258L116.977 83.3005L118.24 84.2241L119.502 85.5121L120.147 86.2607L120.768 86.953L121.549 87.7508L122.395 88.8876L123.101 89.9894L123.656 90.8267L124.478 92.3496L125.047 93.6863L125.591 94.8174L125.978 95.7242L126.361 97.4992L125.556 96.5534L125.09 95.5859L124.859 94.7159L124.448 93.8454L123.945 93.0339L123.332 92.2822L122.136 91.2597L121.032 90.1494L120.18 89.3002L119.414 88.1718L119.084 87.2114L117.607 86.9459L116.093 86.4052L114.472 85.5236L113.307 84.8508L112.217 84.1505L111.199 83.6745L111.441 82.309L111.328 81.2914L110.831 80.3961L110.664 79.8447Z" stroke="#FCF6E6" stroke-miterlimit="1.5" stroke-linecap="round" stroke-linejoin="round"/>
<path fill-rule="evenodd" clip-rule="evenodd" d="M101.343 80.954L100.772 81.9579L100.361 82.7127L99.8332 83.7405L99.7588 84.525L100.891 84.3947L102.639 83.9475L103.633 83.5991L105.067 83.5441L106.211 83.4519L107.275 83.4382L108.506 83.4169L109.609 83.5189L110.419 83.6651L111.221 83.7068L111.358 82.9826L111.479 82.0598L111.323 81.2013L110.877 80.4682L110.67 79.8531L108.943 79.6744L107.582 79.666L106.462 79.752L105.285 79.8646L103.948 80.1695L102.973 80.4173L101.343 80.954Z" stroke="#FCF6E6" stroke-miterlimit="1.5" stroke-linecap="round" stroke-linejoin="round"/>
<path fill-rule="evenodd" clip-rule="evenodd" d="M111.222 83.707L112.029 84.1609L113.017 84.7849L114.147 85.8012L115.111 86.8361L115.72 87.4832L116.179 88.2646L116.623 89.0624L117.055 90.0552L117.361 90.9389L117.279 91.6906L116.573 91.7301L115.746 91.5958L114.937 91.2146L114.439 90.7289L113.929 90.0866L113.624 89.6031L113.284 88.9024L112.898 88.3484L112.383 87.7177L111.945 87.255L111.452 86.8804L111.71 85.9333L111.77 85.0553L111.696 84.5053L111.222 83.707Z" stroke="#FCF6E6" stroke-miterlimit="1.5" stroke-linecap="round" stroke-linejoin="round"/>
<path fill-rule="evenodd" clip-rule="evenodd" d="M117.279 91.6908L118.011 92.0738L118.476 93.0032L118.931 94.0642L119.384 95.0748L119.634 95.92L119.887 96.7758L120.2 97.9712L120.312 98.8288L120.413 99.8176L120.6 100.787L120.754 101.5L120.962 102.625L120.993 103.836L121.015 105.059L120.827 105.835L120.413 107.085L120.144 105.475L119.946 104.08L119.784 103.139L119.553 101.734L119.091 100.489L118.237 99.2738L117.602 98.1533L117.171 97.0245L116.704 95.7515L116.38 94.4715L115.814 93.0892L115.073 91.248L116.123 91.6359L117.018 91.6873L117.279 91.6908Z" stroke="#FCF6E6" stroke-miterlimit="1.5" stroke-linecap="round" stroke-linejoin="round"/>
<path fill-rule="evenodd" clip-rule="evenodd" d="M34.1494 65.3892L35.8217 63.3021L37.1908 61.1711L39.9179 58.3378L42.3276 56.1415L44.8739 54.4195L45.9398 53.8343L46.3791 51.9216L48.077 50.1151L49.3353 48.1414L51.3298 46.6257L51.7526 45.4669L52.9967 44.357L54.5191 43.0235L56.5078 42.2921L58.8489 39.2553L60.8762 37.3916L63.66 36.4765L67.1334 33.9026L70.3171 32.2617L74.825 30.7396L78.794 29.8113L82.579 29.6318L85.8659 30.6164L86.3623 31.4683L84.3408 30.8122L84.4578 31.6864L82.4297 31.1499L82.9912 31.9586L80.7326 31.636L81.2702 32.3695L79.3014 32.4044L80 33.1392L78.9127 33.0116L79.2704 33.6574L77.6381 33.493L78.2439 33.9532L76.7352 34.2903L77.4014 34.7601L75.1955 35.0994L75.4517 35.7587L73.6137 36.3978L74.6043 36.7486L72.5469 37.2757L73.4568 37.6548L71.6658 38.4677L72.5119 38.7409L70.6752 39.1842L71.8213 39.5919L70.2785 40.1873L71.3422 40.5115L69.3074 41.3589L70.4562 41.5897L68.6417 42.4753L69.4275 42.6492L67.4486 43.5986L68.6701 43.4855L68.3749 44.8003L67.6728 45.4168L67.1383 45.8842L66.3525 46.1635L65.7763 46.5488L66.2603 47.0554L66.7275 47.3993L65.7014 47.6216L64.9683 47.7609L65.9971 47.9817L65.4585 48.4231L64.6266 48.7706L65.322 49.0561L65.2821 49.4674L64.4657 49.5674L63.6099 49.9088L63.3382 50.2367L64.5269 50.4166L64.1976 50.8053L63.5275 51.0779L62.7341 51.3642L64.0181 51.5734L63.2035 52.0003L62.3441 52.7187L61.931 52.9489L63.3861 53.0723L62.8617 53.5134L62.0755 53.7417L60.8726 54.1018L62.1921 54.383L62.6211 54.6248L61.3885 54.9379L60.581 55.1545V55.8962L60.1666 56.4083L59.613 56.8429L58.8396 57.3207L58.0848 57.8575L57.7444 58.6753L57.9833 59.6859L59.6821 59.9337L61.4825 60.1265L63.2451 60.4775L64.5389 60.208L66.3711 60.1491L67.8869 58.9771L66.8423 61.4375L68.8646 59.447L70.5054 57.8842L72.3066 56.8181L73.2627 55.3895L74.1712 53.2542L76.1183 52.5527L78.501 51.4905L76.5752 53.4362L78.899 52.4707L80.1369 50.7232L80.4498 49.0615L80.6918 47.2733L81.4431 45.1067L81.7396 46.1188L81.8841 46.7416L82.5613 45.3236L83.0107 44.8304V45.8492L83.4614 45.6025L84.07 44.7246L84.1697 45.7386L84.6701 45.1615L85.4147 44.6299L85.2232 45.7966L85.982 44.8734L86.591 44.2212L86.5374 45.3867L87.2434 44.5251L87.8732 43.79L87.7154 44.9196L88.5234 44.2828L89.327 43.8612L89.3287 44.4986L90.6003 42.8581L91.7323 41.6735L92.9232 40.0552L93.6026 38.6282L93.9585 38.1957L93.9226 39.8415L93.6988 41.1585L93.3584 42.0536L92.7898 43.2201L92.1267 44.4737L91.5027 45.2146L90.2329 46.5065L89.6523 46.9651L89.405 47.8762L89.1718 48.5328L88.6298 49.3935L88.1015 50.0255L87.2532 50.3589L86.201 51.9726L85.6935 52.5529L84.9972 52.9992L84.355 53.6252L83.8914 54.1503L83.4433 54.7084L83.1596 55.3037L82.7146 55.9162L81.5906 56.6644L80.8385 56.9345L80.4175 57.7303L79.9716 58.5062L79.4282 59.5246L78.778 60.1774L77.7249 60.6911L76.7729 60.8361L76.3333 61.7167L75.8058 62.3164L74.9092 63.3699L73.8557 63.9337L72.6679 64.602L71.9339 65.3737L71.34 66.28L70.5715 66.9728L69.4652 67.4572L68.4822 67.97L67.5811 68.544L66.5994 69.2558L65.0291 70.4728L63.7008 71.0973L62.329 71.7927L61.4359 72.9788L60.4369 74.2601L59.1684 74.6191L58.2572 74.6998L57.6629 75.3739L56.8828 76.1141L55.6391 76.3636L54.602 77.453L53.7528 77.7314L52.3443 78.2362L50.9247 79.603L48.6341 80.9003L46.2519 81.3196L44.2388 81.6848L42.3325 81.6188L40.7759 81.129L38.82 80.5413L37.5272 80.0365L36.2339 79.4918L35.4135 78.0243L35.6059 77.4025L34.8892 76.903L34.9752 76.0476L35.1857 75.1328L35.07 74.0793L34.6574 72.2816L34.2882 71.2892L33.9088 70.7215L34.2833 69.0878L33.9575 68.4163L33.4727 67.8105L33.6752 66.4538L34.1494 65.3892Z" stroke="#FCF6E6" stroke-miterlimit="1.5" stroke-linecap="round" stroke-linejoin="round"/>
<path fill-rule="evenodd" clip-rule="evenodd" d="M53.6044 79.4994L52.5678 79.1993L51.8245 78.5137L49.8699 79.916L48.726 80.6034L47.2089 81.1003L45.3013 81.4792L42.7386 81.5138L40.7246 81.1207L37.994 80.0587L36.2109 79.4914L36.3133 80.259L37.3894 80.9376L38.9518 81.6104L39.8125 82.0749L40.2393 82.8864L41.0686 83.6886L42.1106 84.0131L43.0954 84.5334L43.8972 85.2115L45.0797 85.3188L46.1385 85.9973L47.6654 86.25L48.9587 86.2992L49.9506 86.6036L51.8515 86.7929L53.1648 86.7499L53.6009 86.7016L53.7915 84.123L53.8464 83.0624L53.7179 81.4535L53.6044 79.4994Z" stroke="#FCF6E6" stroke-miterlimit="1.5" stroke-linecap="round" stroke-linejoin="round"/>
<path fill-rule="evenodd" clip-rule="evenodd" d="M46.1382 85.9971L45.3391 86.6154L44.3942 87.5926L43.4452 88.4968L42.4471 89.7569L41.8381 90.8423L41.398 91.4681L40.7124 92.4813L39.5361 93.97L38.9865 94.8764L38.2729 96.0921L38.0252 96.9311L37.9378 97.7666L37.4481 98.6778L37.0284 99.5745L36.4704 101.319L36.118 103.086L36.0781 103.783L37.1529 102.57L37.6515 101.278L38.5198 99.7292L39.3863 98.0866L40.2599 97.0486L41.0355 95.7766L42.0948 94.0844L43.0902 92.4675L44.1752 91.4459L45.4548 90.6397L46.7162 89.904L47.1868 88.511L47.8375 87.5284L48.5506 86.2621L46.1382 85.9971Z" stroke="#FCF6E6" stroke-miterlimit="1.5" stroke-linecap="round" stroke-linejoin="round"/>
<path fill-rule="evenodd" clip-rule="evenodd" d="M46.7575 89.9405L46.418 91.4204L46.3537 92.3073L46.0501 93.0851L45.4181 94.4121L44.8596 95.8047L44.307 97.1751L43.901 98.3279L43.5016 99.5556L43.2565 100.333L43.2029 101.303L43.1537 102.368L42.7641 103.542L42.5616 104.543L42.3887 105.934L42.3027 107.437L42.4521 108.505L43.0518 107.239L43.7928 105.775L44.1687 104.357L44.7763 102.986L45.1686 101.741L45.8857 100.362L46.5815 98.7255L47.015 97.3688L47.5943 96.0494L48.1283 94.9936L48.9545 93.3036L49.2466 92.3782L50.0484 91.74L50.7025 90.9449L51.3656 90.202L51.9458 89.059L52.802 87.8189L53.5768 86.8819L51.1896 86.6749L49.9766 86.5712L48.56 86.3018L47.811 87.5459L47.1697 88.485L46.7575 89.9405Z" stroke="#FCF6E6" stroke-miterlimit="1.5" stroke-linecap="round" stroke-linejoin="round"/>
<path fill-rule="evenodd" clip-rule="evenodd" d="M59.492 90.7627L58.0236 91.4138L56.53 92.1562L54.4477 93.1396L53.2803 94.0132L53.0166 95.1935L53.3135 96.1566L54.3897 97.0333L55.7521 97.7876L57.8552 98.1484L59.5952 97.7624L61.431 96.786L63.2522 96.1491L65.0206 95.2423L65.9815 94.3292L66.7788 93.3613L63.7743 92.8985L61.138 91.6988L59.492 90.7627Z" stroke="#FCF6E6" stroke-miterlimit="1.5" stroke-linecap="round" stroke-linejoin="round"/>
<path fill-rule="evenodd" clip-rule="evenodd" d="M53.3737 95.9414L52.7116 97.4851L52.115 98.6561L51.8016 100.676L51.6124 102.138L51.5508 103.251L51.752 104.662L52.5618 105.277L54.3754 104.508L55.5645 103.744L56.1092 102.51L55.8925 100.948L55.4701 99.2172L54.9941 97.9022L54.4694 96.9249L53.3737 95.9414Z" stroke="#FCF6E6" stroke-miterlimit="1.5" stroke-linecap="round" stroke-linejoin="round"/>
<path d="M54.2842 104.436L55.2936 103.738L55.9415 102.517" stroke="#FCF6E6" stroke-miterlimit="1.5" stroke-linecap="round" stroke-linejoin="round"/>
<path fill-rule="evenodd" clip-rule="evenodd" d="M52.7627 105.196L52.9688 107.252L53.2848 108.864L54.0613 110.617L55.2092 112.285L55.8129 113.284L56.741 114.836L57.8605 115.516L58.2408 116.839L59.2762 118.06L60.589 119.379L62.1757 120.39L61.1784 118.389L59.9578 116.085L59.2301 114.775L58.4469 112.634L58.0427 111.298L57.1248 110.591L57.1771 109.343L56.8247 107.554L56.3239 105.041L55.332 103.944L52.7627 105.196Z" stroke="#FCF6E6" stroke-miterlimit="1.5" stroke-linecap="round" stroke-linejoin="round"/>
<path fill-rule="evenodd" clip-rule="evenodd" d="M102.281 118.641L104.2 117.568L105.942 116.07L107.237 114.915L108.48 113.299L109.441 112.013L110.381 110.444L111.057 108.953L111.696 107.357L111.806 105.882L110.792 104.91L109.942 104.115L109.143 103.69L108.598 105.515L108.008 107.775L107.653 109.681L106.944 111.716L105.974 113.529L104.838 115.186L103.343 116.866L102.281 118.641Z" stroke="#FCF6E6" stroke-miterlimit="1.5" stroke-linecap="round" stroke-linejoin="round"/>
<path fill-rule="evenodd" clip-rule="evenodd" d="M111.806 105.882L112.327 104.704L112.517 102.882L112.593 100.826L112.691 99.2389L112.307 97.5883L111.245 95.917L110.807 95.9378L110.425 96.5388L109.853 97.5329L109.561 98.4234L109.466 99.9392L109.239 101.991L109.153 103.679L110.055 104.144L111.806 105.882Z" stroke="#FCF6E6" stroke-miterlimit="1.5" stroke-linecap="round" stroke-linejoin="round"/>
<path fill-rule="evenodd" clip-rule="evenodd" d="M111.245 95.9175L109.999 94.1911L108.706 93.1L107.114 91.9095L104.618 90.8684L103.043 89.6526L100.895 88.6647L98.3598 89.2334L95.041 90.1654L90.624 90.6339L90.1284 89.1886L89.1223 87.6161L88.013 85.7342L86.5198 84.9572L84.3525 84.8238L83.1567 84.4422L82.2233 83.9316L80.9007 84.553L79.9478 84.7179L78.514 84.7644L77.3045 85.2732L76.1938 86.3383L75.162 87.5691L74.514 88.8748L74.335 89.8011L75.4297 91.2079L75.2595 91.9627L74.7786 92.791L76.8471 93.0685L78.0974 93.1026L80.5745 93.4723H82.5787L85.0279 93.2515L87.2883 92.9377L89.9046 92.3611L90.76 92.3784L90.9568 92.1165L91.2963 93.7165L91.5525 93.0561L92.0254 94.1282L92.3507 93.3907L92.9925 94.3387L93.234 93.7116L94.0456 94.9393L94.1737 94.1468L95.1452 94.977L95.2928 94.2324L96.1952 94.9663L96.4048 94.2213L97.203 94.8019L97.2965 94.0422L98.058 94.5236L98.1125 93.9L98.7139 94.3316L98.7795 93.7262L99.3092 94.0068L99.5193 93.3818L100.019 93.4966L103.231 96.7175L105.598 97.4461L108.959 97.872L109.783 97.7572L111.245 95.9175Z" stroke="#FCF6E6" stroke-miterlimit="1.5" stroke-linecap="round" stroke-linejoin="round"/>
<path d="M62.666 80.6605L63.4767 78.943L64.824 77.5899L66.5858 76.4198L68.9238 75.5423L71.0725 74.7219L73.5062 74.4006L75.8157 74.1683L77.7628 74.0433L79.7856 74.1213L83.0858 73.8691L85.1525 73.9596L87.3526 74.2791L90.4392 74.5362L92.7434 74.799L94.3523 75.3557L96.1828 76.13L97.758 76.988L98.7268 77.8541L100.364 80.1207L101.451 80.9021L99.9917 83.4776L99.459 85.1378L97.7438 86.8478L95.7723 88.8529L94.515 90.2654L90.7184 90.5216L89.6462 88.3175L88.083 86.2122L86.7162 84.9526L84.8817 84.848L82.3438 84.0546L80.9149 84.6645L78.4391 84.8365L76.4593 86.0021L75.0742 87.9686L74.3664 89.5864L72.9703 89.3355L71.2418 89.6644" stroke="#FCF6E6" stroke-miterlimit="1.5" stroke-linecap="round" stroke-linejoin="round"/>
<path fill-rule="evenodd" clip-rule="evenodd" d="M64.5012 77.4941L60.2135 77.4932L57.8769 78.0259L56.0088 79.2518L59.6449 79.9561L62.3445 79.0444L63.6157 78.7124L64.5012 77.4941Z" stroke="#FCF6E6" stroke-miterlimit="1.5" stroke-linecap="round" stroke-linejoin="round"/>
<path fill-rule="evenodd" clip-rule="evenodd" d="M63.5312 78.7344L60.3516 79.6669L61.2788 81.5962L62.8154 80.9699L63.5312 78.7344Z" stroke="#FCF6E6" stroke-miterlimit="1.5" stroke-linecap="round" stroke-linejoin="round"/>
<path fill-rule="evenodd" clip-rule="evenodd" d="M69.6387 93.4233L72.1934 93.3338L74.8819 92.7075L75.5006 91.0743L74.4258 89.5682L72.9313 89.1973L71.205 89.3706L71.607 90.6936L71.8911 92.1375L69.6387 93.4233Z" stroke="#FCF6E6" stroke-miterlimit="1.5" stroke-linecap="round" stroke-linejoin="round"/>
<path fill-rule="evenodd" clip-rule="evenodd" d="M76.4961 87.6114L77.5926 88.1202L78.3279 88.2576L79.4169 88.4101L80.7483 88.7753L80.8502 89.2978L80.2616 89.4649L80.7855 89.7956L81.2651 90.3239L81.7872 90.9732L82.0491 91.0955L82.14 90.0473L82.155 88.4748L82.1471 87.4474L81.1928 87.0166L79.9975 86.7383L79.283 86.7724L78.5712 87.1536L76.4961 87.6114Z" stroke="#FCF6E6" stroke-miterlimit="1.5" stroke-linecap="round" stroke-linejoin="round"/>
<path fill-rule="evenodd" clip-rule="evenodd" d="M82.0488 91.095L82.7212 90.8512L83.1542 90.0255L83.9311 89.6519L83.3904 89.2818L83.448 88.7836L84.6594 88.4091L85.8569 88.4574L86.9924 88.2588L87.8554 87.5812L86.7159 87.5466L85.6025 87.3161L84.5871 86.9908L83.5048 86.9629L82.918 87.3312L82.1973 87.4402L82.0488 91.095Z" stroke="#FCF6E6" stroke-miterlimit="1.5" stroke-linecap="round" stroke-linejoin="round"/>
<path fill-rule="evenodd" clip-rule="evenodd" d="M79.4115 86.6357L79.7479 85.9279L81.1028 85.7728L82.1594 85.6895L83.4062 85.8167L84.4712 85.8393L85.0164 86.6304L85.7636 87.172L86.1124 87.4215L84.7318 87.0249L83.5085 86.9318L82.912 87.3355L82.1652 87.4136L81.2996 87.0328L80.2811 86.8134L79.1221 86.7851L79.4115 86.6357Z" stroke="#FCF6E6" stroke-miterlimit="1.5" stroke-linecap="round" stroke-linejoin="round"/>
<path fill-rule="evenodd" clip-rule="evenodd" d="M79.0404 88.3594L79.3365 88.9391L79.3746 89.4763L79.2058 90.1553L78.6717 90.571L77.8642 90.9943L76.804 91.2952L75.7194 91.4388L75.4163 91.2482L74.8906 92.7578L76.8696 93.0512L78.1589 93.1089L79.4682 93.2799L80.6626 93.4829L82.5866 93.4404L84.7326 93.2431L86.4767 93.127L88.1467 92.8234L90.2666 92.3168L90.6952 92.1994L89.7206 91.4503L88.39 91.1193H87.3684L86.5268 90.9819L85.8132 90.6712L85.155 90.1455L84.9551 89.5924L84.9454 88.9772L85.4927 88.4711L84.5562 88.4126L83.8781 88.6271L83.5058 88.8323L83.3994 89.1674L83.9894 89.6367L83.2177 89.9815L82.7696 90.7328L82.0716 91.0333L81.6576 90.8751L81.2348 90.2541L80.7805 89.7887L80.25 89.3943L80.8399 89.2919L80.7242 88.7352L79.0404 88.3594Z" stroke="#FCF6E6" stroke-miterlimit="1.5" stroke-linecap="round" stroke-linejoin="round"/>
<path d="M77.3809 91.7095L80.5543 91.8456L83.2663 91.7928L86.3927 91.417" stroke="#FCF6E6" stroke-miterlimit="1.5" stroke-linecap="round" stroke-linejoin="round"/>
<path d="M76.6348 92.2358L79.0503 92.3736L81.0523 92.4636L83.2626 92.3891L85.4206 92.1697L87.2803 91.875" stroke="#FCF6E6" stroke-miterlimit="1.5" stroke-linecap="round" stroke-linejoin="round"/>
<path d="M101.087 88.707L103.242 89.3559L104.462 89.7322L106.669 89.4516L108.883 88.8413L110.296 87.9345L111.528 86.9014" stroke="#FCF6E6" stroke-miterlimit="1.5" stroke-linecap="round" stroke-linejoin="round"/>
<path fill-rule="evenodd" clip-rule="evenodd" d="M98.3479 85.3059L96.7909 85.1259L95.3744 85.2341L93.703 85.504L92.0037 85.7225L89.5332 85.5337L88.2736 85.1069L86.4276 84.259L85.2762 83.3141L84.9101 82.4684L84.5754 81.6401L84.3281 81.0218L85.1042 80.6309L85.5771 81.1898L86.0372 81.828L86.3084 82.6519L87.1306 83.5556L88.4611 84.271L90.2007 84.7297L91.7741 84.8011L93.4619 84.6725L95.2751 84.2377L97.0976 83.9434L98.7038 84.5373L98.3479 85.3059Z" stroke="#FCF6E6" stroke-miterlimit="1.5" stroke-linecap="round" stroke-linejoin="round"/>
<path fill-rule="evenodd" clip-rule="evenodd" d="M65.9473 84.3891L67.0136 83.867L67.8243 83.9299L69.2 84.1515L70.4153 84.5416L71.9103 84.7282L72.9629 84.7889L74.4898 84.6103L75.7458 84.363L76.9487 83.8369L78.141 82.9854L78.7123 81.4697L79.4467 80.8447L80.0893 80.9657L80.2183 81.7263L79.8469 82.478L79.1745 83.4313L78.0213 84.2003L77.0759 84.8075L75.9679 85.295L74.2544 85.7657L72.9434 85.799L71.323 85.5632L69.497 85.2964L68.1137 85.1208L66.5983 85.0885L65.9677 85.373L65.9473 84.3891Z" stroke="#FCF6E6" stroke-miterlimit="1.5" stroke-linecap="round" stroke-linejoin="round"/>
<path fill-rule="evenodd" clip-rule="evenodd" d="M53.5249 79.5632L53.7496 82.9339L53.6207 84.7063L53.501 86.8847L54.9964 87.6151L56.7626 88.8335L58.3059 90.1223L60.7821 91.483L63.1307 92.6881L65.2874 93.3614L69.3406 93.5311L70.9738 92.9629L71.726 92.1239L71.4748 90.8685L70.9738 89.8733L70.4535 89.271L69.7988 88.6818L69.5369 89.127V88.0532V87.1628L69.1702 87.3854L68.7905 88.2758L68.9083 87.1628V86.639L68.3846 86.9795L68.2012 87.6211L68.0832 86.7871V86.0022L67.5707 86.1546V87.0423L67.0616 85.2661L66.6503 85.5383L66.7939 86.7871L66.4832 85.178L65.7397 85.4776L65.8263 83.8278L65.4844 84.0017L65.1182 84.9783V84.0794L65.2227 83.0606L64.8519 83.3914L64.5079 84.3569L64.5707 82.7632L64.1639 83.0606L63.942 83.8278L63.8576 82.2775L63.3982 82.5148L63.2455 83.2028L63.1874 81.2053L62.8767 81.627L62.7546 82.2775L62.4096 80.8206L62.111 81.2627V81.9044L61.4465 80.1913L60.8126 81.0832L60.2578 79.8293L59.9027 79.907L60.0358 80.8206L59.4255 79.0747L59.0237 79.9486L59.4255 80.6616L58.6219 79.2357L57.9555 79.6319L58.4823 80.5173L57.6973 79.198L56.9167 79.4965L57.5834 80.5173L56.7161 79.1892L56.6513 80.3619L56.0076 79.7294L55.6858 78.9637L55.3529 79.4965L55.4306 80.0179L54.9201 79.4965L54.6427 78.7061L54.3738 79.5317L54.4679 80.3972L54.0102 79.4965L53.696 78.7061L53.5249 79.5632Z" stroke="#FCF6E6" stroke-miterlimit="1.5" stroke-linecap="round" stroke-linejoin="round"/>
<path d="M79.6143 80.3252L80.3043 80.7511L80.6199 81.7865L80.7923 83.0975L81.454 83.7211L82.7509 83.8669L83.7149 83.4915L83.9223 82.6357L83.9994 81.3792L84.4187 80.4675H85.0126" stroke="#FCF6E6" stroke-miterlimit="1.5" stroke-linecap="round" stroke-linejoin="round"/>
<path d="M85.8613 81.4527L86.8723 80.9248L87.9192 81.349L89.5719 81.9265L91.4077 82.3413L93.2404 82.3808L94.9667 81.8462L97.029 81.6433L98.1463 81.4513L99.3612 81.5457L100.506 82.0767" stroke="#FCF6E6" stroke-miterlimit="1.5" stroke-linecap="round" stroke-linejoin="round"/>
<path d="M86.5307 80.9677L86.5059 80.0959L87.0781 79.6709L88.327 80.4997L90.0662 80.8764L92.3013 80.9154L94.8148 81.1495L96.5819 80.9784L98.9509 80.2169L101.068 80.9159" stroke="#FCF6E6" stroke-miterlimit="1.5" stroke-linecap="round" stroke-linejoin="round"/>
<path fill-rule="evenodd" clip-rule="evenodd" d="M85.2009 80.5358L85.1211 78.4088L85.1224 76.8354L85.3068 74.8813L85.4429 73.0836L85.3134 71.6507L85.2802 70.1012L85.5497 69.2086L86.3 68.7246L87.1772 69.1049L87.7808 70.3694L87.7166 71.8253L87.5025 72.1577L86.7574 72.7973L86.9157 73.8552L86.2234 74.3401L86.4578 74.9509L86.1307 75.3675L86.4809 75.6436L86.1817 76.2823L86.6316 76.7973L86.5576 77.2445L86.0642 77.6979L86.6528 77.9271L86.5979 78.4345L86.074 78.9859L86.8093 79.0728L86.7725 79.4012L86.6037 80.9626L85.828 81.4072L85.2009 80.5358Z" stroke="#FCF6E6" stroke-miterlimit="1.5" stroke-linecap="round" stroke-linejoin="round"/>
<path fill-rule="evenodd" clip-rule="evenodd" d="M77.8055 72.7385L77.0942 72.2984L76.799 71.3539L76.7959 70.3731L77.0791 69.6147L77.7626 68.9246L78.7992 68.8701L79.3745 69.8213L79.4135 71.5143L79.2859 72.7877L79.3262 74.104L79.5039 75.3517V76.7602L79.5567 78.2512L79.5261 79.8423L79.5172 80.84L78.6725 81.5841L78.2966 80.9065L78.1375 79.9837L77.9013 79.3805L78.0094 78.8606L78.4761 78.9705L77.962 78.303L78.1513 77.7233L78.5785 77.8687L78.083 77.0514L78.1481 76.1242L78.5843 76.4446L78.1792 75.6207L78.1535 75.1088L78.5656 75.1855L77.997 74.5769L77.7125 73.905L77.8055 72.7385Z" stroke="#FCF6E6" stroke-miterlimit="1.5" stroke-linecap="round" stroke-linejoin="round"/>
<path d="M79.5303 79.6094L80.3923 79.8576L80.8205 80.221L81.3927 80.6319L81.6094 81.1052" stroke="#FCF6E6" stroke-miterlimit="1.5" stroke-linecap="round" stroke-linejoin="round"/>
<path d="M77.6912 79.6104L76.8429 80.0828L75.6981 80.6235L73.9376 80.819L72.3274 81.0171L70.563 81.0659L68.5951 81.0162L66.8205 80.3767L65.1691 80.1059L63.6852 80.6005L62.7646 81.1638" stroke="#FCF6E6" stroke-miterlimit="1.5" stroke-linecap="round" stroke-linejoin="round"/>
<path d="M77.8069 80.75L76.3434 81.445L74.8369 82.096L73.1842 82.4324L71.3621 82.4785L69.9252 82.2095L67.9525 81.6905L66.4096 81.6586L64.7689 81.8004L63.5186 82.2928" stroke="#FCF6E6" stroke-miterlimit="1.5" stroke-linecap="round" stroke-linejoin="round"/>
<path d="M85.6562 71.474L86.2302 72.3338L87.516 71.1943" stroke="#FCF6E6" stroke-miterlimit="1.5" stroke-linecap="round" stroke-linejoin="round"/>
<path d="M85.498 73.3607L86.7709 72.7832" stroke="#FCF6E6" stroke-miterlimit="1.5" stroke-linecap="round" stroke-linejoin="round"/>
<path d="M45.9472 93.2391L45.3617 91.956L45.3076 90.875" stroke="#FCF6E6" stroke-miterlimit="1.5" stroke-linecap="round" stroke-linejoin="round"/>
<path fill-rule="evenodd" clip-rule="evenodd" d="M45.4746 90.7418L46.0889 92.04L46.416 90.7254L45.9958 91.0906L45.8456 90.822L45.9648 90.5361L45.4746 90.7418Z" stroke="#FCF6E6" stroke-miterlimit="1.5" stroke-linecap="round" stroke-linejoin="round"/>
<path fill-rule="evenodd" clip-rule="evenodd" d="M42.6709 107.257L43.3433 105.906L43.7803 104.904L44.2204 103.779L44.9783 102.063L44.3423 102.279L43.7258 102.268L43.1872 103.82L42.8867 105.359L42.6709 107.257Z" stroke="#FCF6E6" stroke-miterlimit="1.5" stroke-linecap="round" stroke-linejoin="round"/>
<path d="M46.3676 92.7344L46.2311 93.4129L45.7466 94.5219L45.3451 95.4242L44.9484 96.6138L44.4782 98.1278L43.9658 99.7934L43.9964 101.298L44.7313 99.3875L45.2201 98.064L45.8384 96.7947L46.8777 94.7244" stroke="#FCF6E6" stroke-miterlimit="1.5" stroke-linecap="round" stroke-linejoin="round"/>
<path d="M44.5264 101.509L44.8411 101.466L45.2594 100.9L45.5391 100.288L46.1091 99.1773L46.4402 98.0342L46.9973 96.7773L47.9143 95.0479" stroke="#FCF6E6" stroke-miterlimit="1.5" stroke-linecap="round" stroke-linejoin="round"/>
<path d="M44.5098 101.429L44.5297 100.917L44.8408 100.008L45.0877 99.1281L45.378 98.4695L45.893 97.1975L46.9058 94.7793" stroke="#FCF6E6" stroke-miterlimit="1.5" stroke-linecap="round" stroke-linejoin="round"/>
<path d="M49.2755 92.2999L48.2109 92.248L46.9876 92.3314L46.4004 92.3371" stroke="#FCF6E6" stroke-miterlimit="1.5" stroke-linecap="round" stroke-linejoin="round"/>
<path d="M41.9082 91.0713L42.8456 91.4316L43.9696 91.5105" stroke="#FCF6E6" stroke-miterlimit="1.5" stroke-linecap="round" stroke-linejoin="round"/>
<path d="M38.0674 97.5439L38.7455 98.2216L39.6146 97.7447" stroke="#FCF6E6" stroke-miterlimit="1.5" stroke-linecap="round" stroke-linejoin="round"/>
<path d="M39.8953 93.9535L39.398 95.023L38.9153 95.8926L38.5816 96.6536L38.5195 97.5724L39.0292 96.8185L39.6581 95.9786L40.3283 94.9641L41.2316 93.7559" stroke="#FCF6E6" stroke-miterlimit="1.5" stroke-linecap="round" stroke-linejoin="round"/>
<path d="M41.3014 93.9707L40.8276 94.6692L40.4469 95.2011L39.9895 95.8145L39.338 96.7709L38.8682 97.6361L39.5259 97.3391L40.3884 96.4181L41.0732 95.4909" stroke="#FCF6E6" stroke-miterlimit="1.5" stroke-linecap="round" stroke-linejoin="round"/>
<path d="M38.5386 98.3721L37.7227 99.8223" stroke="#FCF6E6" stroke-miterlimit="1.5" stroke-linecap="round" stroke-linejoin="round"/>
<path d="M85.5254 71.4191L85.5666 73.1064L86.223 72.7262L87.0749 72.3007L87.3474 71.8996L87.5026 71.1855" stroke="white" stroke-opacity="0.1" stroke-miterlimit="1.5" stroke-linecap="round" stroke-linejoin="round"/>
<path d="M85.7861 74.6208L86.2222 74.335" stroke="#FCF6E6" stroke-miterlimit="1.5" stroke-linecap="round" stroke-linejoin="round"/>
<path d="M85.8252 75.7024L86.1749 75.3496" stroke="#FCF6E6" stroke-miterlimit="1.5" stroke-linecap="round" stroke-linejoin="round"/>
<path d="M85.8955 76.7471L86.2284 76.2676" stroke="#FCF6E6" stroke-miterlimit="1.5" stroke-linecap="round" stroke-linejoin="round"/>
<path d="M85.7129 78.0748L86.1007 77.6729" stroke="#FCF6E6" stroke-miterlimit="1.5" stroke-linecap="round" stroke-linejoin="round"/>
<path d="M85.7959 79.3385L86.1159 78.9648" stroke="#FCF6E6" stroke-miterlimit="1.5" stroke-linecap="round" stroke-linejoin="round"/>
<path d="M78.459 78.9609L78.7178 79.3558" stroke="#FCF6E6" stroke-miterlimit="1.5" stroke-linecap="round" stroke-linejoin="round"/>
<path d="M78.5879 77.8486L78.8175 78.0951" stroke="#FCF6E6" stroke-miterlimit="1.5" stroke-linecap="round" stroke-linejoin="round"/>
<path d="M78.5879 76.4189L78.716 76.6627" stroke="#FCF6E6" stroke-miterlimit="1.5" stroke-linecap="round" stroke-linejoin="round"/>
<path d="M78.5254 75.1758L78.6951 75.5397" stroke="#FCF6E6" stroke-miterlimit="1.5" stroke-linecap="round" stroke-linejoin="round"/>
<path d="M78.7372 74.4236L77.7607 74.0371" stroke="#FCF6E6" stroke-miterlimit="1.5" stroke-linecap="round" stroke-linejoin="round"/>
<path d="M98.6895 84.4591L99.2705 83.8497L100.265 82.0977" stroke="#FCF6E6" stroke-miterlimit="1.5" stroke-linecap="round" stroke-linejoin="round"/>
<path d="M98.3281 85.3359L97.3925 86.5118L96.4888 87.6242L95.6733 88.5271L94.5923 89.3701L93.7151 89.9547L92.9453 90.1953L91.8337 90.2051L90.6113 90.1062" stroke="#FCF6E6" stroke-miterlimit="1.5" stroke-linecap="round" stroke-linejoin="round"/>
<path d="M98.6327 84.6303L97.9812 85.0199L97.7414 84.2146L97.0301 84.9193L96.4574 84.1313L95.953 84.9162L95.278 84.3857L94.7728 85.0722L94.193 84.598L93.7179 85.2606L93.0584 84.8271L92.5536 85.4831L92.0045 84.9255L91.4832 85.5389L90.7417 84.847L90.1354 85.4764L89.6532 84.7943L88.7748 85.1741L88.5026 84.504L87.7124 84.8231L87.4637 83.9987L86.7147 84.2704L86.7342 83.427L85.7791 83.4407L86.0694 82.6199L85.1431 82.5149L85.3168 81.7033L84.5811 81.6364L84.9095 81.1387" stroke="#FCF6E6" stroke-miterlimit="1.5" stroke-linecap="round" stroke-linejoin="round"/>
<path d="M79.9102 81.1709L79.3553 81.2853L79.6811 82.1668L78.7845 81.9838L79.1133 83.2815L78.2309 82.8928L78.2194 83.9046L77.4167 83.7336L77.2545 84.5717L76.5351 84.312L76.1575 85.1315L75.5889 84.5881L75.0796 85.3952L74.5141 84.7756L74.0363 85.5889L73.3223 84.9577L72.8618 85.6008L72.3875 84.9949L71.8592 85.5069L71.4382 84.8248L70.8257 85.3136L70.3279 84.6151L69.8821 85.1018L69.0878 84.4095L68.5945 85.0087L67.9802 84.1183L67.428 84.9001L66.7725 84.0562" stroke="#FCF6E6" stroke-miterlimit="1.5" stroke-linecap="round" stroke-linejoin="round"/>
<path d="M100.004 93.9004L99.4703 94.2745L99.9028 94.6902L99.1715 94.9597L99.687 95.5469L98.8852 95.7499L99.3989 96.2281L98.4455 96.4059L98.9384 97.1855L98.1672 97.4501L98.5523 97.911L97.6775 98.134L98.071 98.7319L97.779 99.0102L97.2772 98.8945L96.3425 99.7127L95.0572 101.211L93.9704 102.99L93.2786 104.823L93.1992 105.776L94.0236 105.005L94.1131 104.347L94.3786 104.151L94.4181 103.625L94.6765 104.426" stroke="#FCF6E6" stroke-miterlimit="1.5" stroke-linecap="round" stroke-linejoin="round"/>
<path d="M94.7461 104.149L95.0302 104.007L95.129 103.546L95.3945 103.499L95.4105 103.039L95.7167 103.135L95.894 102.537L96.1072 103.038L96.3501 102.753L96.4396 102.441L96.7578 102.426L96.9019 102.123L97.1009 102.306L97.9124 101.683L97.8455 102.414L97.9988 102.444L97.287 102.937L97.6438 103.027L96.8465 103.312L96.979 103.621L97.6611 103.54L96.854 103.864L97.0885 104.072L96.6652 104.29L96.3421 104.496L96.7042 104.826L96.1449 105.054L95.7637 105.583L95.41 106.236L94.6787 106.856L96.222 106.438L97.5352 105.732L98.6752 105.137L99.6104 104.071L100.221 102.933L100.459 101.721L100.916 100.864L101.634 100.021L102.552 99.3682L102.839 98.6289L103.051 97.7066L102.932 96.8273L103.035 96.4443" stroke="#FCF6E6" stroke-miterlimit="1.5" stroke-linecap="round" stroke-linejoin="round"/>
<path d="M97.9246 101.678L98.1169 100.77L98.0766 99.5106L97.7783 99.0098" stroke="#FCF6E6" stroke-miterlimit="1.5" stroke-linecap="round" stroke-linejoin="round"/>
<path d="M98.043 102.425L98.4099 101.969L98.5886 101.966" stroke="#FCF6E6" stroke-miterlimit="1.5" stroke-linecap="round" stroke-linejoin="round"/>
<path d="M97.6084 103.022L98.1141 102.866L98.5919 102.638" stroke="#FCF6E6" stroke-miterlimit="1.5" stroke-linecap="round" stroke-linejoin="round"/>
<path d="M97.6445 103.525L97.9539 103.359L98.332 103.268" stroke="#FCF6E6" stroke-miterlimit="1.5" stroke-linecap="round" stroke-linejoin="round"/>
<path d="M97.8781 101.467L97.4464 101.636L97.3086 101.227" stroke="#FCF6E6" stroke-miterlimit="1.5" stroke-linecap="round" stroke-linejoin="round"/>
<path d="M97.0206 101.645L96.6075 101.836L96.4551 101.229" stroke="#FCF6E6" stroke-miterlimit="1.5" stroke-linecap="round" stroke-linejoin="round"/>
<path d="M95.0967 102.263L95.1769 102.578L95.3826 102.646L95.461 102.249L95.6724 102.105L95.7912 102.389L95.9273 102.289L96.0704 101.702L96.2699 102.051L96.4494 102.02" stroke="#FCF6E6" stroke-miterlimit="1.5" stroke-linecap="round" stroke-linejoin="round"/>
<path d="M95.0282 102.318L94.9808 102.923L94.8886 103.257L94.7286 103.393L94.5234 103.632" stroke="#FCF6E6" stroke-miterlimit="1.5" stroke-linecap="round" stroke-linejoin="round"/>
<path d="M103.856 90.5L104.196 91.8469L104.382 93.6809L103.85 95.0664L103.092 96.5565" stroke="#FCF6E6" stroke-miterlimit="1.5" stroke-linecap="round" stroke-linejoin="round"/>
<path d="M101.581 89.5615L100.876 90.2658L100.006 92.032L99.8701 93.3913" stroke="#FCF6E6" stroke-miterlimit="1.5" stroke-linecap="round" stroke-linejoin="round"/>
<path d="M113.796 89.9863L113.572 90.9153L113.2 92.0694L113.084 93.3193L114.055 92.3713L114.72 91.0376" stroke="#FCF6E6" stroke-miterlimit="1.5" stroke-linecap="round" stroke-linejoin="round"/>
<path d="M113.55 89.9326L112.961 91.5162L112.654 92.6943L112.587 94.663L113.463 93.7349L114.453 92.5205L114.851 91.4754" stroke="#FCF6E6" stroke-miterlimit="1.5" stroke-linecap="round" stroke-linejoin="round"/>
<path d="M43.5244 102.074L45.0402 101.767" stroke="#FCF6E6" stroke-miterlimit="1.5" stroke-linecap="round" stroke-linejoin="round"/>
<path d="M108.722 109.328L109.756 106.752" stroke="#FCF6E6" stroke-miterlimit="1.5" stroke-linecap="round" stroke-linejoin="round"/>
<path d="M110.831 101.597L110.738 102.69L110.567 103.48L110.416 104.088L110.202 104.807L110.031 105.503L109.77 106.393L109.751 106.699" stroke="#FCF6E6" stroke-miterlimit="1.5" stroke-linecap="round" stroke-linejoin="round"/>
<path d="M109.988 103.84L109.398 102.626" stroke="#FCF6E6" stroke-miterlimit="1.5" stroke-linecap="round" stroke-linejoin="round"/>
<path d="M111.274 105.184L111.965 104.765L112.248 104.194" stroke="#FCF6E6" stroke-miterlimit="1.5" stroke-linecap="round" stroke-linejoin="round"/>
<path d="M119.17 100.294L120.168 99.9492" stroke="#FCF6E6" stroke-miterlimit="1.5" stroke-linecap="round" stroke-linejoin="round"/>
<path d="M119.867 100.315L119.241 99.0611L118.939 98.1379L118.572 97.275L118.203 96.2356L117.835 95.3585L117.618 94.7318L117.264 93.9336" stroke="#FCF6E6" stroke-miterlimit="1.5" stroke-linecap="round" stroke-linejoin="round"/>
<path d="M116.332 88.0534L116.566 86.6631" stroke="#FCF6E6" stroke-miterlimit="1.5" stroke-linecap="round" stroke-linejoin="round"/>
<path d="M115.071 86.4652L115.109 85.9307" stroke="#FCF6E6" stroke-miterlimit="1.5" stroke-linecap="round" stroke-linejoin="round"/>
<path fill-rule="evenodd" clip-rule="evenodd" d="M106.652 91.5214L105.332 89.9112L103.193 89.5225L104.692 90.7311L106.652 91.5214Z" fill="#FCF6E6" stroke="#FCF6E6" stroke-miterlimit="1.5" stroke-linecap="round" stroke-linejoin="round"/>
<path fill-rule="evenodd" clip-rule="evenodd" d="M93.8359 90.093L94.5149 90.07L95.4794 88.9238L93.8359 90.093Z" fill="#FCF6E6" stroke="#FCF6E6" stroke-miterlimit="1.5" stroke-linecap="round" stroke-linejoin="round"/>
<path fill-rule="evenodd" clip-rule="evenodd" d="M96.8184 87.5406L99.3469 85.0776L99.822 83.5525L100.572 82.2012L100.264 82.3164L99.6235 83.5193L98.9081 84.4425L96.8184 87.5406Z" fill="#FCF6E6" stroke="#FCF6E6" stroke-miterlimit="1.5" stroke-linecap="round" stroke-linejoin="round"/>
<path fill-rule="evenodd" clip-rule="evenodd" d="M99.5117 85.2438L102.69 84.1402L103.05 83.8641L101.642 83.8628L100.483 84.1012L99.9979 83.7764L99.5117 85.2438Z" fill="#FCF6E6"/>
<path fill-rule="evenodd" clip-rule="evenodd" d="M100.128 83.6357C100.128 83.6357 100.634 82.4268 101.831 81.5947C103.028 80.7626 104.284 80.3022 104.284 80.3022L104.993 80.0205L101.632 80.9245L100.128 83.6357Z" fill="#FCF6E6"/>
<path fill-rule="evenodd" clip-rule="evenodd" d="M77.0166 71.0532L78.368 72.4191L79.0359 71.5846L79.254 71.3944L79.246 69.7949L78.7461 68.9492L77.5711 69.1686L76.9834 70.1969L77.0166 71.0532Z" fill="#FCF6E6" stroke="#FCF6E6" stroke-miterlimit="1.5" stroke-linecap="round" stroke-linejoin="round"/>
<circle cx="78.0632" cy="70.1374" r="0.386427" fill="#1A2B3A"/>
<circle cx="86.4519" cy="70.2263" r="0.386427" fill="#1A2B3A"/>
<path d="M78.2823 71.7935C78.3159 71.7599 78.1905 71.5805 78.0022 71.3929C77.814 71.2052 77.6342 71.0803 77.6007 71.1139C77.5672 71.1476 77.6926 71.3269 77.8809 71.5146C78.0691 71.7023 78.2488 71.8271 78.2823 71.7935Z" fill="#FCF6E6"/>
<path d="M86.4503 71.6519C86.4935 71.6086 86.3759 71.4213 86.1877 71.2337C85.9994 71.046 85.8118 70.929 85.7686 70.9723C85.7254 71.0157 85.843 71.2029 86.0312 71.3906C86.2195 71.5782 86.4071 71.6952 86.4503 71.6519Z" fill="#FCF6E6"/>
<path d="M78.2266 71.7923C78.2601 71.8236 78.4086 71.719 78.5583 71.5587C78.7079 71.3985 78.8021 71.2432 78.7686 71.2119C78.7351 71.1806 78.5867 71.2852 78.437 71.4455C78.2873 71.6058 78.1931 71.7611 78.2266 71.7923Z" fill="#FCF6E6"/>
<path d="M86.3801 71.6418C86.4103 71.6763 86.6049 71.5556 86.8149 71.3722C87.0249 71.1887 87.1707 71.012 87.1405 70.9775C87.1104 70.943 86.9157 71.0637 86.7057 71.2472C86.4958 71.4306 86.35 71.6073 86.3801 71.6418Z" fill="#FCF6E6"/>
<path fill-rule="evenodd" clip-rule="evenodd" d="M75.9782 92.8107L77.5214 91.2002L75.3452 91.463L74.9043 92.7335L75.9782 92.8107Z" fill="#FCF6E6"/>
<path fill-rule="evenodd" clip-rule="evenodd" d="M89.3239 92.3076L90.8076 92.1489L89.5587 91.3867C88.7243 91.0856 87.6398 90.7868 87.2798 91.2707L89.3239 92.3076Z" fill="#FCF6E6"/>
<path fill-rule="evenodd" clip-rule="evenodd" d="M83.1363 86.7264L83.8467 86.0523L84.5257 86L85.3022 86.9232L82.8291 87.1661L83.1363 86.7264Z" fill="#FCF6E6"/>
<path fill-rule="evenodd" clip-rule="evenodd" d="M79.8425 86.1031L80.2479 85.9392L80.6743 86.4758L80.9693 86.8279L79.2768 86.7388L79.8425 86.1031Z" fill="#FCF6E6"/>
<path d="M44.0986 58.6042L45.2177 58.2845L46.5434 58.6106L48.1279 58.7553L49.68 58.0335L51.1041 58.5904L52.8933 59.274L54.5669 60.3191L56.4905 61.0118L57.7891 60.9241L57.5878 59.5372L56.568 58.5921L55.2011 57.7822L54.0257 56.9258L52.5051 57.252" stroke="#FCF6E6" stroke-miterlimit="1.5" stroke-linecap="round" stroke-linejoin="round"/>
<path fill-rule="evenodd" clip-rule="evenodd" d="M64.7157 93.3799L66.6224 93.5594L64.0469 95.7515L59.1808 97.7659L56.8588 97.9237L54.7744 97.0191L55.9489 96.934L57.1944 96.2719L57.1079 97.2713L58.3095 97.5182L60.4608 96.9079L62.3622 96.0671L64.2738 94.6537L64.7157 93.3799Z" fill="#FCF6E6" stroke="#FCF6E6" stroke-miterlimit="1.5" stroke-linecap="round" stroke-linejoin="round"/>
<path d="M77.9883 72.6992L79.2169 73.5635" stroke="#FCF6E6" stroke-miterlimit="1.5" stroke-linecap="round" stroke-linejoin="round"/>
<path d="M82.9004 81.1791L83.2434 80.4669L83.7886 80.0968L84.4707 79.7493L85.0198 79.5361" stroke="#FCF6E6" stroke-miterlimit="1.5" stroke-linecap="round" stroke-linejoin="round"/>
<path d="M54.4668 106.839L54.7536 108.391L55.0749 109.467L55.7308 110.909L56.315 112.178L56.9652 113.381L57.6806 114.481L58.6614 115.993L59.4477 116.848" stroke="#FCF6E6" stroke-miterlimit="1.5" stroke-linecap="round" stroke-linejoin="round"/>
<path d="M57.9053 59.833L63.1507 60.6534L65.8375 60.4331" stroke="#FCF6E6" stroke-miterlimit="1.5" stroke-linecap="round" stroke-linejoin="round"/>
</g>
</g>
<defs>
<clipPath id="clip0_83_2">
<rect width="160" height="163.556" rx="80" fill="white"/>
</clipPath>
<clipPath id="clip1_83_2">
<rect width="160" height="131.324" fill="white" transform="translate(27 21)"/>
</clipPath>
</defs>
</svg>
