<?xml version="1.0" standalone="no"?>
<!DOCTYPE svg PUBLIC "-//W3C//DTD SVG 1.1//EN" "http://www.w3.org/Graphics/SVG/1.1/DTD/svg11.dtd">
<svg xmlns="http://www.w3.org/2000/svg" width="765" height="340" viewBox="0 0 765 340" fill="none">
<mask id="mask0_3_232" style="mask-type:luminance" maskUnits="userSpaceOnUse" x="207" y="0" width="124" height="132">
<path d="M207.067 0H330.989V131.656H207.067V0Z" fill="white"/>
</mask>
<g mask="url(#mask0_3_232)">
<mask id="mask1_3_232" style="mask-type:luminance" maskUnits="userSpaceOnUse" x="207" y="0" width="124" height="132">
<path d="M287.187 3.69792L274.411 22.8594C271.655 26.9896 265.609 27.026 262.796 22.9479L249.364 3.38542C248.484 2.10417 247.03 1.32813 245.484 1.3073L213.921 0.848962C211.27 0.807295 209.088 2.92709 209.056 5.57813L207.619 110C219.187 108.729 232.062 109.146 245.489 112.792C246.176 112.979 246.843 113.161 247.52 113.349L249.291 56.474C249.338 54.9844 251.265 54.4479 252.072 55.6927L262.801 72.2708C265.51 76.4583 271.598 76.5521 274.447 72.4583L286.577 55.026C287.416 53.8281 289.286 54.3854 289.333 55.8438L291.468 125.594C303.28 128.385 315.739 130.484 330.775 131.339L329.364 6.76042C329.338 4.15625 327.239 2.05209 324.635 2.01042L291.249 1.5625C289.624 1.54167 288.093 2.34375 287.187 3.69792Z" fill="white"/>
</mask>
<g mask="url(#mask1_3_232)">
<path d="M202.364 -4.70312H562.541V153.286H202.364V-4.70312Z" fill="#40BACB"/>
</g>
</g>
<mask id="mask2_3_232" style="mask-type:luminance" maskUnits="userSpaceOnUse" x="338" y="0" width="108" height="132">
<path d="M338.989 0H445.655V131.911H338.989V0Z" fill="white"/>
</mask>
<g mask="url(#mask2_3_232)">
<mask id="mask3_3_232" style="mask-type:luminance" maskUnits="userSpaceOnUse" x="339" y="0" width="107" height="132">
<path d="M379.291 68.4323L380.676 43.7656C380.806 41.3854 382.671 39.4688 385.046 39.2709L400.275 38C403.01 37.7761 405.379 39.8906 405.447 42.6406L406.135 69.8177C406.197 72.2604 404.14 74.2292 401.702 74.0677L383.155 72.8073C380.89 72.6563 379.171 70.6979 379.291 68.4323ZM427.124 0.619812L355.15 3.76044C352.718 3.8646 350.442 5.00523 348.879 6.87502L345.973 10.375C344.77 11.8281 344.072 13.6354 343.989 15.5261L339.083 131.667C349.661 131.922 361.53 131.594 375.228 130.5L376.817 107.255C376.931 105.578 378.27 104.255 379.942 104.151L402.963 102.703C404.853 102.578 406.463 104.057 406.51 105.958L407.015 127.052C422.411 124.953 434.822 122.281 445.395 119.359L443.28 19.6094C443.239 17.9427 442.723 16.3281 441.791 14.9427L434.655 4.41148C432.973 1.9271 430.124 0.500021 427.129 0.630229" fill="white"/>
</mask>
<g mask="url(#mask3_3_232)">
<path d="M202.364 -4.70312H562.541V153.286H202.364V-4.70312Z" fill="#40BACB"/>
</g>
</g>
<mask id="mask4_3_232" style="mask-type:luminance" maskUnits="userSpaceOnUse" x="207" y="109" width="42" height="41">
<path d="M207.067 109.245H248.322V149.245H207.067V109.245Z" fill="white"/>
</mask>
<g mask="url(#mask4_3_232)">
<mask id="mask5_3_232" style="mask-type:luminance" maskUnits="userSpaceOnUse" x="207" y="109" width="41" height="40">
<path d="M209.426 109.755L207.562 109.927L207.114 142.875C207.067 146.083 209.718 148.672 212.926 148.557L241.306 147.495C244.249 147.38 246.609 145.01 246.692 142.068L247.588 113.302L245.51 112.74C233.968 109.604 221.827 108.609 209.426 109.766" fill="white"/>
</mask>
<g mask="url(#mask5_3_232)">
<path d="M202.364 -4.70309H562.541V153.286H202.364V-4.70309Z" fill="#36A9B2"/>
</g>
</g>
<mask id="mask6_3_232" style="mask-type:luminance" maskUnits="userSpaceOnUse" x="290" y="125" width="41" height="25">
<path d="M290.989 125.245H330.989V149.245H290.989V125.245Z" fill="white"/>
</mask>
<g mask="url(#mask6_3_232)">
<mask id="mask7_3_232" style="mask-type:luminance" maskUnits="userSpaceOnUse" x="291" y="125" width="40" height="24">
<path d="M328.916 131.161C316.973 130.391 305.885 128.792 294.036 126.12L291.411 125.526L291.926 142.536C292.02 145.51 294.421 147.901 297.39 147.974L325.239 148.63C328.405 148.708 331.01 146.141 330.973 142.969L330.843 131.281L328.916 131.161Z" fill="white"/>
</mask>
<g mask="url(#mask7_3_232)">
<path d="M202.364 -4.70312H562.541V153.286H202.364V-4.70312Z" fill="#36A9B2"/>
</g>
</g>
<mask id="mask8_3_232" style="mask-type:luminance" maskUnits="userSpaceOnUse" x="337" y="129" width="39" height="20">
<path d="M337.78 129.776H375.4V148.583H337.78V129.776Z" fill="white"/>
</mask>
<g mask="url(#mask8_3_232)">
<mask id="mask9_3_232" style="mask-type:luminance" maskUnits="userSpaceOnUse" x="338" y="130" width="38" height="19">
<path d="M341.056 131.651L339.025 131.609L338.593 141.891C338.442 145.417 341.301 148.339 344.838 148.266L368.536 147.776C371.702 147.714 374.301 145.24 374.515 142.078L375.306 130.438L372.905 130.615C361.338 131.469 350.931 131.807 341.067 131.641" fill="white"/>
</mask>
<g mask="url(#mask9_3_232)">
<path d="M202.364 -4.70312H562.541V153.286H202.364V-4.70312Z" fill="#36A9B2"/>
</g>
</g>
<mask id="mask10_3_232" style="mask-type:luminance" maskUnits="userSpaceOnUse" x="406" y="118" width="41" height="31">
<path d="M406.432 118.578H446.869V148.583H406.432V118.578Z" fill="white"/>
</mask>
<g mask="url(#mask10_3_232)">
<mask id="mask11_3_232" style="mask-type:luminance" maskUnits="userSpaceOnUse" x="406" y="119" width="40" height="30">
<path d="M442.885 119.969C432.301 122.781 421.15 124.99 408.791 126.74L406.952 127.005L407.317 142.031C407.4 145.661 410.411 148.536 414.041 148.474L439.452 147.984C443.098 147.917 445.994 144.901 445.921 141.25L445.452 119.292L442.885 119.969Z" fill="white"/>
</mask>
<g mask="url(#mask11_3_232)">
<path d="M202.364 -4.70312H562.541V153.286H202.364V-4.70312Z" fill="#36A9B2"/>
</g>
</g>
<mask id="mask12_3_232" style="mask-type:luminance" maskUnits="userSpaceOnUse" x="452" y="91" width="106" height="57">
<path d="M452.515 91.9115H557.838V147.911H452.515V91.9115Z" fill="white"/>
</mask>
<g mask="url(#mask12_3_232)">
<mask id="mask13_3_232" style="mask-type:luminance" maskUnits="userSpaceOnUse" x="453" y="92" width="105" height="56">
<path d="M545.567 107.547C548.718 107.177 551.484 105.281 552.958 102.479L557.744 93.3438V92.276L554.447 92.2448C518.135 91.9271 500.984 98.7708 481.14 106.693L479.515 107.339C471.931 110.359 464.098 113.479 454.78 116.469L453.333 116.943V140.432C453.333 144.323 456.661 147.391 460.546 147.063L485.192 144.995C488.515 144.714 491.119 142.021 491.286 138.693L492.546 113.359C492.614 112.042 493.666 110.995 494.984 110.943L500.051 110.734C501.02 110.698 501.921 111.203 502.385 112.063L519.583 143.516C521.098 146.281 524.296 147.661 527.353 146.875L547.431 141.667C549.515 141.12 551.265 139.698 552.234 137.771C553.28 135.693 553.286 133.24 552.265 131.151L540.968 108.083L545.567 107.547Z" fill="white"/>
</mask>
<g mask="url(#mask13_3_232)">
<path d="M202.364 -4.70312H562.541V153.286H202.364V-4.70312Z" fill="#36A9B2"/>
</g>
</g>
<mask id="mask14_3_232" style="mask-type:luminance" maskUnits="userSpaceOnUse" x="452" y="0" width="106" height="118">
<path d="M452.515 0H557.838V117.245H452.515V0Z" fill="white"/>
</mask>
<g mask="url(#mask14_3_232)">
<mask id="mask15_3_232" style="mask-type:luminance" maskUnits="userSpaceOnUse" x="453" y="0" width="105" height="117">
<path d="M512.702 76.2969L496.504 77.4896C494.905 77.6146 493.546 76.3229 493.583 74.7135L494.379 34.9948C494.411 33.4062 495.791 32.1823 497.379 32.3333L512.989 33.8542C516.312 34.1823 518.833 36.9792 518.822 40.3177L518.692 69.875C518.671 73.25 516.067 76.0417 512.702 76.2865M554.786 10.2708L552.77 8.25521C551.171 6.65625 549.036 5.69791 546.77 5.55729L458.473 0.171872C455.718 -2.48154e-06 453.39 2.19271 453.39 4.95833V116.99C489.999 105.479 504.385 91.4844 557.671 92.3698L557.499 16.8229C557.494 14.3698 556.515 12.0208 554.786 10.2865" fill="white"/>
</mask>
<g mask="url(#mask15_3_232)">
<path d="M202.364 -4.70312H562.541V153.286H202.364V-4.70312Z" fill="#40BACB"/>
</g>
</g>
<mask id="mask16_3_232" style="mask-type:luminance" maskUnits="userSpaceOnUse" x="0" y="305" width="40" height="35">
<path d="M0.668488 305.675H39.1789V339.529H0.668488V305.675Z" fill="white"/>
</mask>
<g mask="url(#mask16_3_232)">
<mask id="mask17_3_232" style="mask-type:luminance" maskUnits="userSpaceOnUse" x="0" y="305" width="39" height="35">
<path d="M3.27787 309.435L1.74142 309.774L0.783082 332.576C0.621624 336.248 3.606 339.284 7.27267 339.206L30.3768 338.727C33.6789 338.664 36.3664 336.086 36.5956 332.805L38.4393 305.805L36.2102 305.852C23.8872 306.133 12.8091 307.336 3.26746 309.435" fill="white"/>
</mask>
<g mask="url(#mask17_3_232)">
<path d="M-4.07629 186.242H768.939V344.232H-4.07629V186.242Z" fill="#36A9B2"/>
</g>
</g>
<mask id="mask18_3_232" style="mask-type:luminance" maskUnits="userSpaceOnUse" x="113" y="190" width="106" height="137">
<path d="M113.476 190.94H218.799V326.821H113.476V190.94Z" fill="white"/>
</mask>
<g mask="url(#mask18_3_232)">
<mask id="mask19_3_232" style="mask-type:luminance" maskUnits="userSpaceOnUse" x="113" y="191" width="106" height="136">
<path d="M173.309 304.93L157.84 308.383C155.945 308.805 154.137 307.383 154.101 305.44L152.762 231.248C152.726 229.19 154.689 227.675 156.674 228.237L174.846 233.43C178.57 234.492 181.116 237.935 181.043 241.81L179.997 296.748C179.924 300.69 177.158 304.076 173.309 304.93ZM217.293 215.43L206.445 201.003C205.304 199.492 203.564 198.534 201.674 198.373L119.517 191.617C116.96 191.414 114.762 193.414 114.741 195.992L113.866 312.763C155.34 318.998 184.533 324.248 210.054 326.794L213.346 322.909C214.773 321.227 215.585 319.112 215.658 316.904L218.632 219.643C218.679 218.128 218.205 216.654 217.293 215.44" fill="white"/>
</mask>
<g mask="url(#mask19_3_232)">
<path d="M-4.07629 186.242H768.939V344.232H-4.07629V186.242Z" fill="#40BACB"/>
</g>
</g>
<mask id="mask20_3_232" style="mask-type:luminance" maskUnits="userSpaceOnUse" x="223" y="190" width="90" height="140">
<path d="M223.502 190.821H312.669V329.487H223.502V190.821Z" fill="white"/>
</mask>
<g mask="url(#mask20_3_232)">
<mask id="mask21_3_232" style="mask-type:luminance" maskUnits="userSpaceOnUse" x="224" y="191" width="89" height="138">
<path d="M261.793 301.102L261.955 279.586C261.965 278.498 262.887 277.628 263.976 277.696L287.241 279.086C290.288 279.268 292.856 276.852 292.856 273.805V252.237C292.856 249.435 290.674 247.123 287.882 246.956L263.95 245.513C262.945 245.456 262.163 244.623 262.163 243.617V228.841C262.163 227.779 263.028 226.925 264.09 226.94L304.215 227.414C307.257 227.451 309.767 225.045 309.866 222.003L310.611 199.216C310.715 196.133 308.288 193.55 305.205 193.456L229.971 191.045C226.84 190.94 224.252 193.456 224.252 196.586V327.935C250.32 329.492 274.085 327.612 306.002 320.232C308.148 319.732 310.32 319.253 312.512 318.774L311.976 310.008C311.825 307.555 309.861 305.597 307.403 305.466L263.601 303.029C262.585 302.972 261.793 302.128 261.804 301.112" fill="white"/>
</mask>
<g mask="url(#mask21_3_232)">
<path d="M-4.07629 186.242H768.939V344.232H-4.07629V186.242Z" fill="#40BACB"/>
</g>
</g>
<mask id="mask22_3_232" style="mask-type:luminance" maskUnits="userSpaceOnUse" x="319" y="192" width="113" height="126">
<path d="M319.424 192.154H431.335V317.487H319.424V192.154Z" fill="white"/>
</mask>
<g mask="url(#mask22_3_232)">
<mask id="mask23_3_232" style="mask-type:luminance" maskUnits="userSpaceOnUse" x="319" y="192" width="113" height="126">
<path d="M389.887 199.237L389.58 250.003C389.57 250.951 388.288 251.232 387.887 250.378L361.882 195.419C360.945 193.425 358.939 192.154 356.731 192.154H326.054C322.924 192.154 320.382 194.675 320.356 197.81L319.45 317.294C331.403 314.841 344.08 312.633 357.2 310.711L358.715 270.513C358.752 269.581 360.012 269.315 360.408 270.164L378.236 307.951C394.288 306.071 410.767 304.659 427.221 303.81L431.116 198.138C431.236 194.81 428.491 192.091 425.174 192.232L395.335 193.576C392.304 193.706 389.908 196.201 389.887 199.237Z" fill="white"/>
</mask>
<g mask="url(#mask23_3_232)">
<path d="M-4.07629 186.242H768.939V344.232H-4.07629V186.242Z" fill="#40BACB"/>
</g>
</g>
<mask id="mask24_3_232" style="mask-type:luminance" maskUnits="userSpaceOnUse" x="438" y="190" width="106" height="116">
<path d="M438.002 190.94H543.241V305.487H438.002V190.94Z" fill="white"/>
</mask>
<g mask="url(#mask24_3_232)">
<mask id="mask25_3_232" style="mask-type:luminance" maskUnits="userSpaceOnUse" x="438" y="191" width="105" height="114">
<path d="M541.221 222.862L542.403 197.102C542.543 194.102 540.148 191.602 537.148 191.602H444.028C441.111 191.602 438.752 193.972 438.773 196.888L438.903 222.305C438.924 225.097 441.111 227.393 443.908 227.534L467.351 228.654C468.726 228.722 469.793 229.857 469.788 231.232L469.184 302.982C482.752 303.164 496.023 303.81 508.7 304.998L511.502 231.315C511.549 229.987 512.611 228.914 513.95 228.862L536.2 227.883C538.913 227.758 541.096 225.586 541.221 222.867" fill="white"/>
</mask>
<g mask="url(#mask25_3_232)">
<path d="M-4.07632 186.242H768.939V344.232H-4.07632V186.242Z" fill="#40BACB"/>
</g>
</g>
<mask id="mask26_3_232" style="mask-type:luminance" maskUnits="userSpaceOnUse" x="547" y="190" width="106" height="129">
<path d="M547.945 190.94H652.669V318.821H547.945V190.94Z" fill="white"/>
</mask>
<g mask="url(#mask26_3_232)">
<mask id="mask27_3_232" style="mask-type:luminance" maskUnits="userSpaceOnUse" x="548" y="191" width="105" height="128">
<path d="M608.684 267.211L590.627 268.534C589.398 268.628 588.351 267.643 588.382 266.404L589.21 225.295C589.236 224.076 590.288 223.133 591.512 223.253L608.96 224.977C611.627 225.237 613.658 227.487 613.653 230.175L613.507 262.055C613.502 264.774 611.403 267.024 608.695 267.222M647.606 293.956L651.257 287.69C652.075 286.284 652.507 284.685 652.507 283.055L652.34 207.539C652.33 205.274 651.434 203.102 649.83 201.492L647.419 199.086C645.945 197.612 643.971 196.716 641.882 196.597L557.299 191.414C552.372 191.112 548.205 195.034 548.205 199.972V310.93C549.278 311.164 550.351 311.409 551.403 311.654C562.278 314.201 574.174 315.878 586.669 316.904L587.283 304.628C587.356 303.133 588.559 301.951 590.044 301.883L594.674 301.696C595.773 301.649 596.799 302.232 597.325 303.201L605.403 317.982C618.335 318.435 631.648 318.357 644.929 317.972L635.658 299.034L640.705 298.451C643.585 298.123 646.132 296.446 647.59 293.946" fill="white"/>
</mask>
<g mask="url(#mask27_3_232)">
<path d="M-4.07623 186.242H768.939V344.232H-4.07623V186.242Z" fill="#40BACB"/>
</g>
</g>
<mask id="mask28_3_232" style="mask-type:luminance" maskUnits="userSpaceOnUse" x="659" y="190" width="106" height="128">
<path d="M659.851 190.94H764.236V317.487H659.851V190.94Z" fill="white"/>
</mask>
<g mask="url(#mask28_3_232)">
<mask id="mask29_3_232" style="mask-type:luminance" maskUnits="userSpaceOnUse" x="659" y="191" width="106" height="127">
<path d="M717.981 308.935L705.762 308.128C702.413 307.904 699.804 305.149 699.762 301.8L698.825 229.388C698.778 225.586 702.012 222.576 705.793 222.899L719.257 224.029C722.596 224.31 725.163 227.112 725.153 230.461L724.846 302.55C724.825 306.258 721.684 309.18 717.991 308.935M763.044 312.706L764.184 203.216C764.2 201.581 763.59 199.998 762.481 198.794L757.439 193.331C756.215 191.998 754.476 191.253 752.674 191.263L669.325 191.779C667.142 191.8 665.122 192.909 663.945 194.742L660.934 199.446C660.267 200.487 659.908 201.711 659.918 202.951L660.726 317.409C700.627 315.649 738.632 311.982 763.033 312.716" fill="white"/>
</mask>
<g mask="url(#mask29_3_232)">
<path d="M-4.07623 186.242H768.939V344.232H-4.07623V186.242Z" fill="#40BACB"/>
</g>
</g>
<mask id="mask30_3_232" style="mask-type:luminance" maskUnits="userSpaceOnUse" x="68" y="306" width="41" height="34">
<path d="M68.6685 306.821H108.669V339.529H68.6685V306.821Z" fill="white"/>
</mask>
<g mask="url(#mask30_3_232)">
<mask id="mask31_3_232" style="mask-type:luminance" maskUnits="userSpaceOnUse" x="68" y="306" width="41" height="34">
<path d="M105.856 311.56C102.32 311.044 98.8144 310.524 95.4185 310.034C87.0383 308.831 78.8664 307.873 71.1373 307.18L68.8716 306.972L69.5175 333.867C69.5956 336.998 72.1894 339.482 75.3196 339.425L102.434 338.909C105.585 338.852 108.085 336.248 108.017 333.097L107.57 311.805L105.856 311.56Z" fill="white"/>
</mask>
<g mask="url(#mask31_3_232)">
<path d="M-4.07629 186.242H768.939V344.232H-4.07629V186.242Z" fill="#36A9B2"/>
</g>
</g>
<mask id="mask32_3_232" style="mask-type:luminance" maskUnits="userSpaceOnUse" x="113" y="312" width="98" height="28">
<path d="M113.476 312.258H210.335V339.529H113.476V312.258Z" fill="white"/>
</mask>
<g mask="url(#mask32_3_232)">
<mask id="mask33_3_232" style="mask-type:luminance" maskUnits="userSpaceOnUse" x="113" y="312" width="98" height="28">
<path d="M148.929 318.17C139.148 316.628 128.07 314.888 116.184 313.091L113.861 312.742L113.7 333.508C113.668 336.706 116.304 339.295 119.491 339.216L196.043 337.44C199.278 337.367 202.325 335.909 204.418 333.446L210.054 326.795L206.236 326.383C189.616 324.586 171.658 321.753 148.908 318.18" fill="white"/>
</mask>
<g mask="url(#mask33_3_232)">
<path d="M-4.07629 186.242H768.939V344.232H-4.07629V186.242Z" fill="#36A9B2"/>
</g>
</g>
<mask id="mask34_3_232" style="mask-type:luminance" maskUnits="userSpaceOnUse" x="223" y="317" width="91" height="22">
<path d="M223.502 317.899H313.783V338.821H223.502V317.899Z" fill="white"/>
</mask>
<g mask="url(#mask34_3_232)">
<mask id="mask35_3_232" style="mask-type:luminance" maskUnits="userSpaceOnUse" x="224" y="318" width="90" height="21">
<path d="M310.2 319.263C308.767 319.581 307.356 319.904 306.002 320.211C275.939 327.17 252.872 329.43 226.387 328.034L224.247 327.925V333.461C224.247 336.404 226.632 338.795 229.575 338.795H308.09C311.169 338.795 313.601 336.201 313.413 333.133L312.528 318.742L310.2 319.263Z" fill="white"/>
</mask>
<g mask="url(#mask35_3_232)">
<path d="M-4.07629 186.242H768.939V344.232H-4.07629V186.242Z" fill="#36A9B2"/>
</g>
</g>
<mask id="mask36_3_232" style="mask-type:luminance" maskUnits="userSpaceOnUse" x="318" y="310" width="40" height="29">
<path d="M318.481 310.373H357.981V338.821H318.481V310.373Z" fill="white"/>
</mask>
<g mask="url(#mask36_3_232)">
<mask id="mask37_3_232" style="mask-type:luminance" maskUnits="userSpaceOnUse" x="319" y="310" width="39" height="29">
<path d="M321.059 316.956L319.445 317.289L319.33 332.503C319.299 336.065 322.366 338.862 325.913 338.503L351.085 335.982C354.059 335.68 356.361 333.237 356.476 330.248L357.221 310.685L354.793 311.044C343.2 312.774 331.846 314.758 321.07 316.94" fill="white"/>
</mask>
<g mask="url(#mask37_3_232)">
<path d="M-4.07629 186.242H768.939V344.232H-4.07629V186.242Z" fill="#36A9B2"/>
</g>
</g>
<mask id="mask38_3_232" style="mask-type:luminance" maskUnits="userSpaceOnUse" x="378" y="303" width="50" height="37">
<path d="M378.002 303.794H427.335V339.529H378.002V303.794Z" fill="white"/>
</mask>
<g mask="url(#mask38_3_232)">
<mask id="mask39_3_232" style="mask-type:luminance" maskUnits="userSpaceOnUse" x="378" y="303" width="50" height="36">
<path d="M381.059 307.617L378.236 307.94L391.122 335.248C392.195 337.513 394.507 338.925 397.017 338.821L420.215 337.919C423.481 337.789 426.096 335.175 426.215 331.909L427.252 303.81L425.023 303.935C410.538 304.722 395.747 305.966 381.059 307.628" fill="white"/>
</mask>
<g mask="url(#mask39_3_232)">
<path d="M-4.07629 186.242H768.939V344.232H-4.07629V186.242Z" fill="#36A9B2"/>
</g>
</g>
<mask id="mask40_3_232" style="mask-type:luminance" maskUnits="userSpaceOnUse" x="468" y="302" width="42" height="38">
<path d="M468.668 302.852H509.387V339.529H468.668V302.852Z" fill="white"/>
</mask>
<g mask="url(#mask40_3_232)">
<mask id="mask41_3_232" style="mask-type:luminance" maskUnits="userSpaceOnUse" x="468" y="302" width="41" height="38">
<path d="M471.236 302.992L469.184 302.956L468.939 332.05C468.903 336.154 472.429 339.378 476.512 338.992L501.523 336.591C504.976 336.263 507.637 333.435 507.767 329.972L508.721 304.956L506.793 304.789C495.611 303.8 483.648 303.19 471.236 302.982" fill="white"/>
</mask>
<g mask="url(#mask41_3_232)">
<path d="M-4.07632 186.242H768.939V344.232H-4.07632V186.242Z" fill="#36A9B2"/>
</g>
</g>
<mask id="mask42_3_232" style="mask-type:luminance" maskUnits="userSpaceOnUse" x="605" y="317" width="44" height="22">
<path d="M605.309 317.899H648.569V338.821H605.309V317.899Z" fill="white"/>
</mask>
<g mask="url(#mask42_3_232)">
<mask id="mask43_3_232" style="mask-type:luminance" maskUnits="userSpaceOnUse" x="605" y="317" width="43" height="22">
<path d="M643.648 317.992C630.887 318.331 619.538 318.357 608.95 318.065L605.403 317.972L614.554 334.706C615.981 337.326 619.017 338.633 621.918 337.893L642.616 332.513C644.439 332.044 645.965 330.8 646.809 329.117L647.184 328.357C648.096 326.539 648.106 324.399 647.215 322.571L644.955 317.956L643.648 317.992Z" fill="white"/>
</mask>
<g mask="url(#mask43_3_232)">
<path d="M-4.07629 186.242H768.939V344.232H-4.07629V186.242Z" fill="#36A9B2"/>
</g>
</g>
<mask id="mask44_3_232" style="mask-type:luminance" maskUnits="userSpaceOnUse" x="547" y="310" width="41" height="29">
<path d="M547.945 310.821H587.335V338.586H547.945V310.821Z" fill="white"/>
</mask>
<g mask="url(#mask44_3_232)">
<mask id="mask45_3_232" style="mask-type:luminance" maskUnits="userSpaceOnUse" x="548" y="310" width="39" height="29">
<path d="M551.413 311.643L548.2 310.904V331.524C548.2 335.341 551.46 338.341 555.262 338.024L580.07 335.946C583.32 335.675 585.882 333.029 586.038 329.768L586.679 316.893L584.731 316.722C572.346 315.633 561.137 313.919 551.413 311.633" fill="white"/>
</mask>
<g mask="url(#mask45_3_232)">
<path d="M-4.07623 186.242H768.939V344.232H-4.07623V186.242Z" fill="#36A9B2"/>
</g>
</g>
<mask id="mask46_3_232" style="mask-type:luminance" maskUnits="userSpaceOnUse" x="660" y="312" width="104" height="28">
<path d="M660.668 312.258H763.299V339.529H660.668V312.258Z" fill="white"/>
</mask>
<g mask="url(#mask46_3_232)">
<mask id="mask47_3_232" style="mask-type:luminance" maskUnits="userSpaceOnUse" x="660" y="312" width="104" height="28">
<path d="M761.023 312.643C745.752 312.331 725.924 313.571 702.981 315.013L702.924 315.018C689.929 315.831 676.486 316.675 662.663 317.305L660.71 317.399L660.773 327.321C660.793 330.321 662.392 333.086 664.971 334.607L670.986 338.164C672.325 338.956 673.835 339.357 675.387 339.347L750.924 338.841C754.08 338.821 756.981 337.055 758.434 334.253L761.965 327.492C762.585 326.294 762.913 324.982 762.929 323.633L763.043 312.696L761.023 312.643Z" fill="white"/>
</mask>
<g mask="url(#mask47_3_232)">
<path d="M-4.07635 186.242H768.939V344.232H-4.07635V186.242Z" fill="#36A9B2"/>
</g>
</g>
<mask id="mask48_3_232" style="mask-type:luminance" maskUnits="userSpaceOnUse" x="1" y="190" width="107" height="123">
<path d="M1.56433 190.94H107.83V312.154H1.56433V190.94Z" fill="white"/>
</mask>
<g mask="url(#mask48_3_232)">
<mask id="mask49_3_232" style="mask-type:luminance" maskUnits="userSpaceOnUse" x="1" y="191" width="107" height="121">
<path d="M41.1841 263.534L42.7154 236.31C42.8977 233.044 45.455 230.419 48.705 230.149L60.5279 229.159C64.2779 228.852 67.5227 231.758 67.6164 235.518L68.3716 265.378L41.1841 263.534ZM103.486 205.31L97.5904 196.623C95.3977 193.388 91.6945 191.524 87.7883 191.696L18.4237 194.711C15.257 194.857 12.2831 196.321 10.2622 198.768L8.65287 200.706C7.08516 202.597 6.18412 204.956 6.07996 207.409L1.75183 309.794C11.1164 307.602 23.1164 306.039 38.4393 305.826L39.1529 295.331L68.5591 293.477L68.8872 306.982C77.0591 307.664 85.8925 308.664 95.4341 310.029C99.5904 310.628 103.627 311.211 107.57 311.794L105.434 211.357C105.387 209.196 104.715 207.081 103.497 205.284" fill="white"/>
</mask>
<g mask="url(#mask49_3_232)">
<path d="M-4.07629 186.242H768.939V344.232H-4.07629V186.242Z" fill="#40BACB"/>
</g>
</g>
</svg>